<svg xmlns="http://www.w3.org/2000/svg" width="16" height="26" viewBox="0 0 16 26"><g><g><g/><g><g><path d="M8.984 20.16H6.93v5.085h2.054z"/></g><g><path d="M7.963 6.58l3.493 2.93v15.729h-1.6v-6.55H6.07v6.55h-1.6V9.509zm-1.462 8.822h-.973v1.465H6.5zm0-3.295h-.973v1.465H6.5zm1.947 3.295h-.974v1.465h.974zm0-3.295h-.974v1.465h.974zm.977 1.465h.973v-1.465h-.973zm0 3.294h.973v-1.464h-.973zm-.977-8.053h-.974v1.465h.974z"/></g><g><path d="M15.348 11.84v13.405H12.32V11.84zm-1.028 9.264h-.973v1.465h.973zm0-3.294h-.973v1.465h.973zm0-3.294h-.973v1.465h.973z"/></g><g><path d="M.57 11.84h3.028v13.405H.57zm1.027 4.14h.973v-1.464h-.973zm0 3.295h.973V17.81h-.973zm0 3.294h.973v-1.465h-.973z"/></g><g><path d="M8.386 5.312V2.558h1.765V.24H7.52v5.072l.435-.365z"/></g></g></g></g></svg>