<svg xmlns="http://www.w3.org/2000/svg" width="25" height="19" viewBox="0 0 25 19"><g><g><g/><g><path d="M11.621 17.95c-1.443-1.419-3.158-2.183-5.07-2.514-.778-.13-1.574-.184-2.37-.23-.732-.046-1.041-.332-1.041-1.06V1.902c0-.746.337-1.077 1.087-1.05 2.165.083 4.227.498 5.923 1.916.506.423.909.957 1.33 1.473.122.156.179.396.179.598.009 4.3.009 8.59.009 12.89-.01.046-.028.092-.047.221z"/></g><g><path d="M12.972 17.932v-.524c0-4.116-.01-8.222.018-12.338 0-.359.131-.764.338-1.059 1.124-1.648 2.802-2.486 4.723-2.89.787-.167 1.602-.222 2.408-.277.694-.046 1.04.313 1.04.994v12.338c0 .7-.328.994-1.087 1.013-2.268.055-4.423.515-6.316 1.841-.365.258-.703.562-1.124.902z"/></g><g><path d="M1.819 3.804v10.265c0 1.548.843 2.367 2.418 2.413 2.08.074 4.048.488 5.744 1.768.122.092.225.193.403.35-.74-.102-1.387-.212-2.033-.276-2.306-.24-4.573.018-6.832.478-.768.157-1.19-.184-1.19-.966C.319 13.582.348 9.337.31 5.084.3 3.924.797 3.666 1.82 3.804z"/></g><g><path d="M22.816 3.78h.581c.572.018.91.331.91.884.008 4.429.008 8.866 0 13.295 0 .644-.47.994-1.135.856-2.268-.46-4.554-.727-6.878-.488-.647.065-1.294.175-2.034.276.75-.708 1.574-1.141 2.465-1.463 1.2-.433 2.436-.617 3.71-.654 1.528-.037 2.381-.884 2.381-2.403v-9.76-.543z"/></g></g></g></svg>