<svg xmlns="http://www.w3.org/2000/svg" width="21" height="18" viewBox="0 0 21 18"><g><g><g/><g><path d="M.57 15.518V.16h20v15.366h-1.894c-.024-.484-.07-.92.219-1.365.877-1.348.587-3.117-.642-4.188-1.166-1.023-2.967-1.04-4.133-.032-1.252 1.071-1.558 2.848-.681 4.212.29.453.25.881.227 1.373-4.368-.008-8.712-.008-13.096-.008zM3.294 3.769h14.544V2.643H3.294v1.126zm0 3.118H17.83V5.745H3.294v1.142zm7.264 1.967H3.302v1.127h7.256V8.854z"/></g><g><path d="M16.187 14.529c-1.128 0-2.075-.952-2.067-2.086a2.084 2.084 0 0 1 2.05-2.063c1.136-.008 2.075.944 2.067 2.078-.007 1.119-.939 2.063-2.05 2.07z"/></g><g><path d="M17.458 17.163c-.447-.142-.862-.38-1.284-.38-.415 0-.838.238-1.284.38v-1.697c.853.317 1.699.357 2.568-.016v1.713z"/></g></g></g></svg>