<svg xmlns="http://www.w3.org/2000/svg" width="23" height="23" viewBox="0 0 23 23"><g><g><g/><g><path d="M11.301 22.84C5.234 22.84.31 17.907.31 11.831.31 5.756 5.234.84 11.31.84s11 4.924 11 11-4.933 11-11.009 11zM2.88 7.036c.773.378 1.503.74 2.225 1.1.559.275.653.507.456 1.1-.344 1.031-.705 2.054-1.04 3.085a.785.785 0 0 0 .017.524c.533 1.23 1.092 2.45 1.65 3.67.24.524.533.705 1.031.67.464-.034.722-.283.86-.868.249-1.057.481-2.114.747-3.17a1.67 1.67 0 0 1 .293-.61 131.65 131.65 0 0 1 1.976-2.493c1.083-1.35 1.083-1.35.593-3.016-.155-.542-.49-.843-1.031-.954-.98-.198-1.96-.404-2.93-.62-.637-.137-.774-.317-.783-.97V3.169C5.165 4.106 3.86 5.352 2.88 7.036zm16.964.198c-.353.412-.696.773-.997 1.168a1.126 1.126 0 0 0-.224.61c-.026.645.009 1.29-.017 1.934a1.634 1.634 0 0 1-.24.748c-.533.808-1.126 1.581-1.65 2.398-.19.3-.353.687-.336 1.022.07 1.143.18 2.278.37 3.403.043.25.438.473.722.636.086.052.344-.111.464-.24 2.389-2.312 3.394-5.13 2.99-8.43a9.012 9.012 0 0 0-1.082-3.25zm-9.196 14.368c.98-.085 1.925-.171 2.974-.257-.344-.447-.567-.825-.877-1.1-.163-.146-.507-.215-.722-.155-.696.198-1.22.619-1.375 1.512z"/></g></g></g></svg>