<svg xmlns="http://www.w3.org/2000/svg" width="22" height="22" viewBox="0 0 22 22"><g><g><g/><g><path d="M.57 8.617V2.555C.57 1.35 1.341.57 2.539.57h5.25c.55 0 .689.098.861.615 1.6 4.824 3.2 9.647 4.799 14.462.221.665-.025.993-.73.993H2.514C1.358 16.648.57 15.86.57 14.72V8.617zm6.677.648c-.04.123-.057.189-.09.246-.5.952-1.69 1.28-2.6.714a1.857 1.857 0 0 1-.55-2.617 1.84 1.84 0 0 1 2.699-.369c.435.353.78.377 1.034.058.246-.304.147-.673-.263-1.018a3.05 3.05 0 0 0-3.544-.254 3.093 3.093 0 0 0-1.386 3.363c.336 1.436 1.764 2.453 3.24 2.33 1.501-.131 2.74-1.394 2.814-2.871.024-.558-.205-.804-.771-.804-.55 0-1.091-.008-1.64 0-.395.008-.64.246-.649.59-.008.362.246.616.648.632.336.009.665 0 1.058 0z"/></g><g><path d="M12.425 21.545c.804-1.788 1.592-3.527 2.38-5.266.434.434.73.434 1.18-.025.206-.213.41-.435.632-.673.254.271.484.534.738.788.288.287.665.303.911.066.263-.255.254-.591-.033-.911a9.37 9.37 0 0 0-.615-.656c-.164-.164-.189-.296-.041-.492.582-.763 1.083-1.567 1.378-2.494.025-.09.156-.18.254-.213.337-.115.509-.337.46-.673-.05-.345-.287-.517-.632-.525-.582-.008-1.173 0-1.78 0-.098-.5.14-1.198-.689-1.214-.41-.008-.525.23-.607 1.214H14.427c-.599 0-.894.197-.902.599-.009.41.295.615.918.623h3.339c-.402.697-.746 1.304-1.132 1.977-.148-.189-.238-.32-.336-.443-.238-.295-.591-.369-.862-.18-.287.197-.352.533-.147.861.147.238.328.468.508.73-.344.37-.689.738-1.042 1.124-1.123-3.388-2.247-6.76-3.371-10.156.14-.008.246-.016.353-.016h7.916c1.099 0 1.895.788 1.895 1.879V19.69c0 1.1-.796 1.887-1.887 1.895-2.297.008-4.594 0-6.89 0-.1-.016-.198-.033-.362-.04z"/></g><g><path d="M8.99 17.9h3.732c-.525 1.14-1.017 2.256-1.55 3.355-.082.156-.377.295-.566.295-.172 0-.427-.18-.484-.344-.402-1.083-.755-2.182-1.132-3.306z"/></g></g></g></svg>