<svg xmlns="http://www.w3.org/2000/svg" width="23" height="23" viewBox="0 0 23 23"><g><g><g/><g><path d="M.36 11.185V5.593C.369 2.506 2.796.08 5.892.07h11.141c3.087.009 5.515 2.436 5.523 5.532.009 3.71.009 7.422 0 11.141-.008 3.087-2.436 5.515-5.532 5.523-3.71.009-7.421.009-11.14 0C2.795 22.258.368 19.83.36 16.734v-5.549zM20.32 5.75c-.01-2.098-1.345-3.442-3.434-3.442-3.607-.009-7.223-.009-10.83 0-2.115 0-3.45 1.344-3.459 3.468-.009 3.598-.009 7.197 0 10.786 0 2.124 1.344 3.468 3.46 3.468 3.598.009 7.196.009 10.785 0 2.142 0 3.477-1.335 3.477-3.494.009-1.786 0-3.572 0-5.367 0-1.803.009-3.607 0-5.419z"/></g><g><path d="M17.008 11.15c0 3.113-2.436 5.558-5.54 5.558-3.113 0-5.558-2.436-5.558-5.54 0-3.113 2.436-5.558 5.54-5.558 3.113 0 5.558 2.436 5.558 5.54zm-2.237.026c.009-1.898-1.387-3.32-3.286-3.338-1.899-.017-3.33 1.379-3.347 3.278-.017 1.916 1.396 3.355 3.304 3.355 1.907.009 3.32-1.396 3.33-3.295z"/></g><g><path d="M18.117 5.619c0 .607-.538 1.136-1.145 1.118-.59-.017-1.092-.537-1.092-1.118 0-.607.538-1.136 1.144-1.119.581.018 1.093.538 1.093 1.119z"/></g></g></g></svg>