<svg xmlns="http://www.w3.org/2000/svg" width="21" height="21" viewBox="0 0 21 21"><g><g><g/><g><path d="M15.585 20.66H5.542c.039-.877-.008-1.77.14-2.631.14-.783.758-1.206 1.548-1.355.11-.023.265-.117.297-.211.273-.893.523-1.794.781-2.694.016-.047 0-.102 0-.133-.656-.173-1.328-.29-1.954-.517-2.594-.924-4.165-2.835-5.064-5.372C.876 6.572.665 5.35.586 4.113c-.093-1.456.837-2.443 2.298-2.45h1.673V.66h12.02v1.002c.61 0 1.172-.007 1.743 0 1.391.016 2.321.987 2.259 2.38a16.16 16.16 0 0 1-.149 1.363c-.265 1.786-.82 3.47-1.899 4.942-1.36 1.856-3.212 2.874-5.463 3.21l-.156.024c-.016 0-.024.016-.055.04.008.07.008.163.031.242.243.838.485 1.676.72 2.513.054.196.116.298.35.33.947.125 1.619.892 1.634 1.848 0 .68-.008 1.37-.008 2.106zm-8.957-9.616c-1.36-2.295-1.712-4.8-1.954-7.33H2.642c-.399 2.702 1.665 6.523 3.986 7.33zm7.917 0c2.321-.815 4.447-4.777 3.963-7.33h-2.025c-.234 2.545-.594 5.035-1.938 7.33z"/></g></g></g></svg>