<svg xmlns="http://www.w3.org/2000/svg" width="25" height="22" viewBox="0 0 25 22"><g><g><g/><g><path d="M12.31 22c-6.628 0-12-4.916-12-11 0-6.102 5.363-11 12.037-11 6.62 0 11.963 4.941 11.963 11.034C24.3 17.084 18.929 22 12.31 22zm-.037-16.612c-.666.146-1.247.215-1.772.396-.657.232-1.172.644-1.378 1.306-.15.473.018.868.44 1.057.46.198.778.129 1.106-.335.46-.662 1.135-.774 1.885-.653.975.154 1.312.954.694 1.667-.254.3-.591.55-.929.782-.975.679-1.322 1.59-1.209 2.681.047.481.319.636.975.61.553-.026.825-.206.787-.644-.056-.817.375-1.35 1.022-1.865.525-.421 1.022-.937 1.35-1.504.657-1.126.216-2.372-1.04-2.948-.619-.275-1.322-.378-1.932-.55zm-.338 8.534c-.647.009-1.172.516-1.172 1.117 0 .61.581 1.134 1.228 1.109.647-.017 1.172-.516 1.172-1.117-.01-.62-.562-1.118-1.228-1.11z"/></g></g></g></svg>