<svg xmlns="http://www.w3.org/2000/svg" width="13" height="12" viewBox="0 0 13 12"><g><g><g/><g><path fill="#4dd10f" d="M0 10.687V.75h13v9.943h-1.231c-.016-.314-.046-.596.142-.883.57-.873.382-2.018-.417-2.71-.758-.663-1.928-.673-2.687-.021-.814.693-1.012 1.843-.442 2.726.188.292.163.57.147.888-2.839-.006-5.663-.006-8.512-.006zm1.77-7.601h9.454v-.73H1.771v.73zm0 2.017h9.45v-.74H1.77v.74zm4.722 1.273H1.776v.729h4.716v-.73z"/></g><g><path fill="#4dd10f" d="M10.143 10.045A1.357 1.357 0 0 1 8.8 8.695a1.352 1.352 0 0 1 1.333-1.335 1.346 1.346 0 0 1 1.343 1.345 1.363 1.363 0 0 1-1.333 1.34z"/></g><g><path fill="#4dd10f" d="M10.979 11.749c-.29-.093-.56-.247-.835-.247-.27 0-.544.154-.834.247V10.65c.555.206 1.104.231 1.669-.01v1.109z"/></g></g></g></svg>