<svg xmlns="http://www.w3.org/2000/svg" width="30" height="21" viewBox="0 0 30 21"><g><g><g/><g><path fill="#ffda44" d="M2.849 6.994c.785.743 1.535 1.452 2.273 2.173 1.5 1.44 3.574 1.325 4.852-.314 1.254-1.604 2.472-3.242 3.703-4.858-.61-1.383-.516-2.173.293-2.73a1.798 1.798 0 0 1 2.262.162c.656.64.691 1.476.07 2.475.222.302.457.628.703.942.984 1.301 1.957 2.603 2.941 3.904 1.29 1.709 3.387 1.883 4.922.407.739-.709 1.477-1.44 2.121-2.08-.199-.546-.445-1-.504-1.464-.093-.825.528-1.57 1.313-1.755.809-.186 1.652.209 2.004.953.363.755.176 1.662-.528 2.115-.386.255-.503.57-.609.964-.539 2.174-1.09 4.347-1.64 6.52-.211.86-.434 1.034-1.348 1.034-7.125.012-14.25.023-21.375.023-.95 0-1.078-.104-1.313-1.034-.586-2.3-1.148-4.614-1.746-6.903-.047-.197-.281-.372-.468-.511-.657-.465-.938-1.22-.68-1.964.246-.767.867-1.209 1.664-1.22.809 0 1.476.476 1.7 1.255.198.709-.036 1.301-.61 1.906z"/></g><g><path fill="#ffda44" d="M15.043 20.936H4.567c-1.031 0-1.254-.233-1.254-1.267 0-.488-.012-.964.012-1.453.023-.627.328-.894.949-.94.14-.012.27 0 .41 0h21.07c.727.034.985.278 1.008.987.012.523.012 1.046 0 1.569-.012.86-.258 1.104-1.113 1.104H15.043z"/></g></g></g></svg>