<svg xmlns="http://www.w3.org/2000/svg" width="30" height="22" viewBox="0 0 30 22"><g><g><g/><g><path fill="#4dd10f" d="M29.91 7.905c-.537.615-.844 1.229-1.305 1.44a529.723 529.723 0 0 1-12.686 5.588c-.441.192-1.094.115-1.555-.077C10.277 13.11 6.188 11.285 2.1 9.5 1.39 9.192.891 8.73.91 7.924c.02-.749.48-1.21 1.152-1.497 4.088-1.786 8.176-3.61 12.283-5.339.518-.21 1.286-.21 1.804 0a494.778 494.778 0 0 1 12.264 5.396c.519.23.903.826 1.497 1.421z"/></g><g><path fill="#4dd10f" d="M5.11 14.16c2.552 1.133 5.067 2.15 7.504 3.322 1.804.864 3.512.845 5.316-.02 2.13-1.036 4.338-1.958 6.526-2.918.288-.134.576-.23.883-.346.384 2.324-.211 3.591-2.111 4.705-5.24 3.072-10.499 3.149-15.777.115-2.11-1.19-2.648-2.227-2.341-4.858z"/></g></g></g></svg>