<svg xmlns="http://www.w3.org/2000/svg" width="32" height="33" viewBox="0 0 32 33"><g><g><g/><g><path fill="#5f318d" d="M4.333 31.627c-.16 1.375-.16 1.375-1.48 1.375-.706 0-1.426-.014-2.133 0-.507.014-.72-.22-.72-.743V20.517c0-.481.213-.715.68-.715.907 0 1.827.027 2.733 0 .64-.028.907.234.854.894-.014.22 0 .453 0 .728.626.097 1.24.152 1.84.303.813.206 1.666.357 2.413.729 1.147.563 2.307.715 3.547.673 1.2-.04 2.4-.013 3.6-.013 1.306.013 2.226.92 2.226 2.2 0 1.278-.906 2.186-2.226 2.2-1.707.013-3.414 0-5.134 0-.173 0-.4-.055-.52.027-.2.124-.466.358-.453.55 0 .179.307.495.48.495 2.067.028 4.133.11 6.187-.027 1.613-.11 2.72-1.582 2.706-3.287 0-.412.107-.605.467-.77 1.853-.81 3.707-1.65 5.547-2.475 1.093-.48 2.106-.165 2.573.784.467.963.107 1.966-.947 2.571-3.813 2.2-7.626 4.387-11.426 6.6-.76.44-1.534.495-2.374.413-2.653-.275-5.306-.509-7.946-.756-.147-.028-.294-.014-.494-.014z"/></g><g><path fill="#5f318d" d="M14.35 6.05c1.347-1.43 2.627-2.86 3.973-4.194.587-.577 1.4-.756 2.227-.756 2.493.014 4.973 0 7.467 0h.706c.16-1.1.16-1.1 1.214-1.1h1.133c.84 0 .92.096.92.935v10.519c0 1.897.147 1.746-1.68 1.746-.173 0-.36-.014-.533 0-.614.055-1.067-.082-1-.88-.694.426-1.334.811-2.107 1.292 0-1.65-.013-3.148.013-4.647 0-.138.24-.247.294-.412.08-.207.2-.537.12-.647-.134-.151-.494-.302-.654-.22-.893.482-1.786.619-2.76.303-.16-.055-.44.137-.6.302-1.173 1.183-2.32 2.393-3.493 3.589-.6.619-1.333.797-2.147.536-.76-.247-1.24-.797-1.386-1.609-.147-.783.173-1.43.706-1.98l3.2-3.3c.12-.123.32-.247.36-.398.067-.248.027-.523.04-.784-.253.014-.6-.083-.76.055-.48.399-.88.907-1.346 1.334-.174.165-.454.302-.68.316-1.054.014-2.12 0-3.227 0z"/></g><g><path fill="#5f318d" d="M16.733 7.178c-.506.7-.96 1.347-1.453 1.952-.12.151-.413.22-.627.22-1.906.014-3.826.014-5.733 0-.547 0-.88.11-.947.77-.053.523-.44.839-.96.894-.44.041-.613.302-.6.729a68.27 68.27 0 0 1 0 2.337c0 .454.134.743.627.784.547.055.893.412.96.976.053.481.28.674.747.674h12.4c.453 0 .693-.179.746-.66.067-.564.4-.921.96-.976.48-.055.64-.317.64-.784-.013-.715-.026-1.416 0-2.131.014-.55-.093-.95-.733-.977-.16 0-.307-.151-.427-.206.734-1.334 1.8-1.842 3.294-1.444V17.71c0 .921-.067 1.004-.934 1.004H5.227c-.84 0-.934-.083-.934-.935 0-3.259.014-6.504-.013-9.763 0-.618.213-.866.813-.866 3.774.014 7.56.014 11.334.014.093-.014.186 0 .306.014z"/></g><g><path fill="#5f318d" d="M20.586 15.399c-3.587 0-7.414 0-11.227-.014-.16 0-.347-.179-.48-.316-.293-.303-.533-.66-.827-.963-.173-.179-.533-.289-.56-.467-.08-.495-.026-1.004 0-1.499 0-.069.16-.124.24-.193.467-.426.92-.852 1.56-1.457h5.6c.52 2.035 1.387 3.011 2.787 3.135 1.253.11 1.693-.124 3.707-2.035 1.08.412 1.12.481.973 1.994-.6.619-1.093 1.127-1.773 1.815z"/></g></g></g></svg>