<svg xmlns="http://www.w3.org/2000/svg" width="29" height="28" viewBox="0 0 29 28"><g><g><g/><g><path fill="#5f318d" d="M14.034.79c-1.564 1.55-2.385 3.27-2.582 5.295-.393 4.028 2.757 7.994 6.913 8.627 1.334.21 2.647.158 3.938-.222.678-.2 1.356.296 1.356.992v5.379c0 1.234.01 2.457 0 3.691-.011 1.94-1.356 3.228-3.369 3.228H3.676C1.718 27.79.34 26.46.34 24.584V3.975C.34 2.12 1.73.79 3.654.79h10.38zM3.84 22.2c0 .791-.01 1.582 0 2.363.01.622.328.949.963.97.557.021 1.126.032 1.695 0 1.17-.063 1.958-.823 2.001-1.962.044-.928.033-1.856 0-2.784-.043-1.202-.886-1.962-2.143-1.983a36.87 36.87 0 0 0-1.532 0c-.678.01-.984.316-.995.97.011.812.011 1.614.011 2.426zm10.5-.02v-1.214c-.01-1.37-.82-2.11-2.231-2.173-1.707-.084-2.472 1.055-2.45 2.141.022.739.033 1.477 0 2.215-.088 1.625 1.006 2.637 2.898 2.363 1.061-.158 1.75-.928 1.772-1.951.022-.464.011-.928.011-1.382zm4.003-3.376c-.273 0-.547-.01-.82 0-1.16.032-1.98.823-2.002 1.94-.01.971-.022 1.93 0 2.901.022.928.69 1.698 1.64 1.825.723.084 1.456.084 2.177.052.525-.02.82-.41.799-.885-.033-.454-.361-.75-.875-.76-.514-.01-1.017-.01-1.531 0-.35.01-.493-.137-.493-.474a57.06 57.06 0 0 0 0-2.373c-.01-.412.143-.57.57-.549a12.36 12.36 0 0 0 1.53-.01c.525-.043.82-.412.788-.897-.033-.443-.361-.738-.875-.76-.284-.02-.602-.01-.908-.01z"/></g><g><path fill="#5f318d" d="M24.976 10.02c.985.95 1.958 1.888 2.943 2.827.35.337.525.717.382 1.192-.251.833-1.29 1.086-1.968.464a94.899 94.899 0 0 1-2.593-2.5c-.295-.295-.492-.369-.907-.148-2.21 1.203-4.846.96-6.847-.6a5.812 5.812 0 0 1-1.969-6.276c.7-2.268 2.833-3.987 5.305-4.166 2.384-.18 4.331.696 5.654 2.626 1.324 1.93 1.378 3.976.307 6.043a9.91 9.91 0 0 1-.307.538zm-1.323-3.322c0-2.025-1.684-3.66-3.773-3.67-2.068.01-3.785 1.666-3.785 3.67s1.706 3.66 3.785 3.67c2.078 0 3.773-1.645 3.773-3.67z"/></g><g><path fill="#5f318d" d="M5.61 23.846v-3.322c.164-.01.317-.021.47-.042.514-.064.722.126.69.643-.033.643-.012 1.297-.012 1.951 0 .78-.021.802-.82.791-.076 0-.175-.01-.328-.02z"/></g><g><path fill="#5f318d" d="M11.41 22.147v-1.255c0-.464.35-.39.657-.4.306-.011.536.041.525.421-.01.844-.01 1.677 0 2.52.011.402-.24.444-.569.454-.339 0-.623-.042-.623-.464.01-.432.01-.854.01-1.276z"/></g></g></g></svg>