<svg xmlns="http://www.w3.org/2000/svg" width="22" height="22" viewBox="0 0 22 22"><g><g><g/><g><path d="M10.805.322h7.02c2.151 0 3.475 1.312 3.485 3.444.01 4.694 0 9.388 0 14.082 0 2.142-1.323 3.454-3.464 3.454H3.795c-2.12 0-3.443-1.312-3.443-3.413C.33 13.185.362 8.491.31 3.797.29 1.727 1.871.24 3.826.302c2.326.072 4.653.02 6.979.02zM2.14 6.984c-.01.205-.02.38-.02.543v10.29c0 1.2.506 1.712 1.716 1.712h13.948c1.241 0 1.737-.502 1.737-1.742V7.546v-.563H2.141zm12.212-4.212h-2.068c-.704 0-1.417-.01-2.12.02-.476.02-.796.39-.796.84 0 .431.29.77.734.851.186.031.372.031.569.031h5.273c.796 0 1.582.01 2.378 0 .569-.01.91-.277.982-.717.093-.595-.29-1.015-.972-1.015-1.323-.02-2.657-.01-3.98-.01zm-11.322.01c-.486 0-.89.4-.88.871a.88.88 0 0 0 .859.85c.496.021.89-.358.9-.84a.883.883 0 0 0-.88-.88zm3.505 1.722a.841.841 0 0 0 .879-.861.846.846 0 0 0-.817-.86c-.486-.021-.91.348-.92.83-.021.47.372.88.858.89z"/></g><g><path d="M10.783 16.905c-.91 0-1.82.01-2.74 0-.672-.01-.89-.153-1.096-.789-.445-1.322-.879-2.644-1.334-3.966-.134-.38-.155-.738.155-1.046.32-.328.683-.317 1.096-.174.476.174 1.024.533 1.437.42.414-.112.693-.697 1.034-1.086.249-.287.486-.574.735-.86.465-.513 1.044-.513 1.499.01.486.553.982 1.106 1.416 1.69.238.308.455.349.786.195a10.97 10.97 0 0 1 1.106-.4c.766-.246 1.417.308 1.18 1.056-.456 1.476-.973 2.941-1.48 4.407-.144.43-.537.543-.961.543h-2.833zM9.49 13.134c-.03.686.57 1.312 1.283 1.353.713.03 1.364-.585 1.375-1.302.01-.687-.6-1.312-1.303-1.332-.693-.02-1.334.584-1.355 1.28z"/></g></g></g></svg>