<svg xmlns="http://www.w3.org/2000/svg" width="32" height="28" viewBox="0 0 32 28"><g><g><g/><g><path fill="#5f318d" d="M0 22.192V0h22.54v17.056H8.132c-1.015 0-2.155-.254-3.033.126-.877.367-1.49 1.367-2.217 2.088-.927.923-1.855 1.872-2.882 2.922zM3.759 9.388h15.035V7.604H3.759v1.784zM5.65 5.605h11.301c0-.417-.025-.797.013-1.177.05-.531-.138-.67-.664-.67-3.358.025-6.716.012-10.074.012-.188 0-.376.026-.576.038v1.797zM16.902 11.4H5.651v1.797h11.251V11.4z"/></g><g><path fill="#5f318d" d="M9.4 22.746V18.95h15.06V5.69h7.543v22.294c-.338-.38-.576-.67-.827-.924-1.278-1.303-2.581-2.581-3.846-3.897-.301-.316-.614-.43-1.04-.43-5.35.013-10.688.013-16.038.013H9.4z"/></g></g></g></svg>