<svg xmlns="http://www.w3.org/2000/svg" width="17" height="18" viewBox="0 0 17 18"><g><g><g><path fill="#423e2e" d="M9.432 14.03H7.19v3.444h2.242z"/></g><g><path fill="#423e2e" d="M8.313 4.84l3.813 1.984v10.653h-1.747v-4.436H6.247v4.436H4.5V6.824zm-1.596 5.975H5.655v.992h1.062zm0-2.231H5.655v.992h1.062zm2.125 2.23H7.78v.993h1.062zm0-2.23H7.78v.992h1.062zm1.067.992h1.062v-.993H9.91zm0 2.23h1.062v-.991H9.91zM8.842 6.353H7.78v.992h1.062z"/></g><g><path fill="#423e2e" d="M16.375 8.4v9.079H13.07V8.4zm-1.121 6.274H14.19v.993h1.063zm0-2.23H14.19v.991h1.063zm0-2.232H14.19v.992h1.063z"/></g><g><path fill="#423e2e" d="M.25 8.4h3.305v9.079H.25zm1.121 2.804h1.063v-.992H1.37zm0 2.231h1.063v-.992H1.37zm0 2.232h1.063v-.993H1.37z"/></g><g><path fill="#423e2e" d="M8.775 3.985V2.12h1.927V.55H7.83v3.435l.475-.247z"/></g></g></g></svg>