<svg xmlns="http://www.w3.org/2000/svg" width="29" height="32" viewBox="0 0 29 32"><g><g><g/><g><g><path d="M16.513 25.2H12.48v6.405h4.033z"/></g><g><path d="M14.497 8.1l6.858 3.69v19.815h-3.142v-8.25h-7.431v8.25H7.64V11.791zm-2.87 11.113h-1.91v1.845h1.91zm0-4.15h-1.91v1.845h1.91zm3.822 4.15h-1.91v1.845h1.91zm0-4.15h-1.91v1.845h1.91zm1.918 1.845h1.91v-1.845h-1.91zm0 4.15h1.91v-1.845h-1.91zM15.45 10.913h-1.91v1.845h1.91z"/></g><g><path d="M29.003 14.72v16.887H23.06V14.72zm-2.016 11.67h-1.91v1.846h1.91zm0-4.15h-1.91v1.846h1.91zm0-4.15h-1.91v1.846h1.91z"/></g><g><path d="M0 14.72h5.943v16.887H0zm2.016 5.216h1.911v-1.845h-1.91zm0 4.15h1.911V22.24h-1.91zm0 4.15h1.911V26.39h-1.91z"/></g><g><path d="M15.35 6.509v-3.47h3.466V.12H13.65v6.389l.853-.46z"/></g></g></g></g></svg>