<svg xmlns="http://www.w3.org/2000/svg" width="85" height="19" viewBox="0 0 85 19"><g><g><path fill="#ede8f9" d="M2.62 17.158C.533 17.404.727 18.488 1.085 19H84.13v-1.842c-1.023 0-3.5-.184-5.219-.92-2.149-.922-2.302-2.917-4.298-3.224-1.996-.307-3.224 1.535-5.987 1.535s-2.61-5.373-7.06-6.14c-4.452-.768-3.07 3.684-6.448 3.684-3.377 0-5.526-11.513-8.596-11.513-5.987 0-11.052 9.057-12.894 9.364-1.842.307-3.224-3.53-5.526-3.224-1.842.246-6.09 5.322-7.982 7.829-.82-.819-3.101-2.456-5.68-2.456-2.579 0-3.735 3.377-3.991 5.065-1.74-.102-5.741-.245-7.829 0z"/></g></g></svg>