<svg xmlns="http://www.w3.org/2000/svg" width="60" height="14" viewBox="0 0 60 14"><g><g><path fill="#ede8f9" d="M1.489 11.854c-1.493.175-1.354.95-1.098 1.317h59.377v-1.317c-.732 0-2.502-.132-3.732-.66-1.536-.658-1.646-2.084-3.073-2.304-1.426-.22-2.304 1.098-4.28 1.098-1.976 0-1.866-3.842-5.049-4.39-3.183-.55-2.195 2.634-4.61 2.634C36.61 8.232 35.075 0 32.879 0c-4.28 0-7.902 6.476-9.219 6.695-1.317.22-2.305-2.524-3.951-2.305-1.317.176-4.354 3.805-5.707 5.598-.586-.586-2.217-1.756-4.061-1.756-1.844 0-2.671 2.414-2.854 3.622-1.244-.074-4.105-.176-5.597 0z"/></g></g></svg>