<svg xmlns="http://www.w3.org/2000/svg" width="34" height="8" viewBox="0 0 34 8"><g><g><path fill="#ede8f9" d="M1.335 7.119c-.836.098-.758.533-.615.738h33.256v-.738c-.41 0-1.401-.074-2.09-.369-.86-.369-.922-1.168-1.72-1.29-.8-.124-1.292.614-2.398.614-1.107 0-1.045-2.152-2.828-2.459-1.783-.307-1.23 1.475-2.582 1.475-1.352 0-2.213-4.61-3.442-4.61-2.398 0-4.426 3.627-5.164 3.75-.738.123-1.29-1.414-2.213-1.291-.737.098-2.438 2.13-3.196 3.135-.328-.328-1.242-.984-2.275-.984-1.032 0-1.496 1.353-1.598 2.029-.697-.041-2.3-.098-3.135 0z"/></g></g></svg>