<svg xmlns="http://www.w3.org/2000/svg" width="18" height="19" viewBox="0 0 18 19"><g><g><g/><g><path fill="#ffd600" d="M17.292 6.978c.002.05-.001.1-.014.15l-1.11 4.441a.505.505 0 0 1-.487.382l-6.662.034H2.355a.505.505 0 0 1-.49-.383L.755 7.144a.504.504 0 0 1-.013-.154A1.061 1.061 0 1 1 2.12 5.98c0 .328-.151.623-.387.817l1.39 1.401c.351.354.839.557 1.337.557.59 0 1.152-.28 1.506-.75L8.251 4.98a1.061 1.061 0 1 1 1.809-.749c0 .283-.113.54-.295.73l.002.003L12.035 8c.354.473.918.756 1.51.756.503 0 .977-.196 1.332-.552l1.4-1.399a1.058 1.058 0 0 1 .663-1.884c.585 0 1.06.475 1.06 1.06 0 .46-.296.852-.708.998zm-1.232 7.8a.505.505 0 0 1-.505.504H2.501a.505.505 0 0 1-.505-.505v-1.21c0-.28.226-.505.505-.505h13.054c.279 0 .505.226.505.504z"/></g></g></g></svg>