<svg xmlns="http://www.w3.org/2000/svg" width="12" height="12" viewBox="0 0 12 12"><g><g><g/><g><path fill="#423e2e" d="M2.998 11.65c0-.418-.014-.819.005-1.22.023-.483.446-.883.97-.965.071-.009.175-.056.189-.108.168-.5.319-1.004.473-1.504.01-.026 0-.056 0-.04-.516-.146-1.032-.245-1.505-.435C1.69 6.801.82 5.741.385 4.391.188 3.797.085 3.176.01 2.56c-.094-.81.488-1.357 1.38-1.362h.994V.65h7.22v.547h.999c.881.005 1.45.54 1.388 1.337-.084 1.099-.347 2.155-.985 3.107-.812 1.212-2.003 1.897-3.532 2.104-.038.004-.076.013-.137.026.043.146.076.284.122.418.118.38.235.758.366 1.133.024.06.113.134.179.143.595.094.985.5.994 1.056.005.37 0 .745 0 1.133-1.994-.004-3.983-.004-6-.004zM1.24 2.322C.962 3.732 2.36 6.098 3.613 6.34c-.798-1.242-1.009-2.621-1.159-4.018H1.239zm8.308-.004c-.145 1.405-.361 2.785-1.182 4.065a3.403 3.403 0 0 0 1.74-1.505c.46-.797.657-1.655.69-2.56H9.547z"/></g></g></g></svg>