<svg id="Layer_1" enable-background="new 0 0 511.449 511.449" height="512" viewBox="0 0 511.449 511.449" width="512" xmlns="http://www.w3.org/2000/svg"><path fill="#B5BBC1" d="m436.508 74.941c-99.913-99.913-261.639-99.928-361.566 0-99.914 99.912-99.93 261.64 0 361.567 99.913 99.913 261.639 99.928 361.566 0 99.913-99.912 99.929-261.64 0-361.567zm-138.144 266.45c11.724 0 21.013 9.481 21.027 20.973.015 11.598-9.375 21.012-20.973 21.027l-106.667.137c-9.983 0-18.474-6.953-20.552-16.558-2.094-9.672 2.85-19.493 11.866-23.574 14.127-6.394 23.681-28.066 26.176-45.338h-17.517c-11.598 0-21-9.402-21-21s9.402-21 21-21h11.206c-7.43-14.534-43.939-62.055.233-106.229 29.048-29.049 76.071-29.053 105.123 0 8.201 8.201 8.2 21.498-.001 29.699-8.199 8.2-21.495 8.201-29.698 0-12.634-12.635-33.088-12.637-45.725 0-9.176 9.176-15.861 19.852 2.871 49.307 5.328 8.427 9.369 17.594 12.099 27.224h50.559c11.598 0 21 9.402 21 21s-9.402 21-21 21h-46.869c-1.399 14.885-5.598 29.987-12.343 43.409z"/></svg>