<svg xmlns="http://www.w3.org/2000/svg" width="412" height="15" viewBox="0 0 412 15"><g><g><g><path fill="#9f54eb" d="M3.84 11.912l1.107-.032-1.107.032z"/></g><g><path fill="#9f54eb" d="M333.957 12.639c.318.05.634.041.794.096"/></g><g><path fill="#9f54eb" d="M274.615 6.239l.001.06"/></g><g><path fill="#9f54eb" d="M16.009 11.555l-.475.014c-.16-.055.315-.07.475-.014z"/></g><g><path fill="#9f54eb" d="M349.462 12.782s.001.06.16.055"/></g><g><path fill="#9f54eb" d="M53.572 8.836l.475-.014c-.315.07-.475.014-.475.014z"/></g><g><path fill="#9f54eb" d="M261.02 11.906c-.16-.055-.317-.05-.32-.11"/></g><g><path fill="#9f54eb" d="M260.701 11.796c-.57.133-1.16-.18-1.746-.188-2.214-.03-4.429.165-6.64.075-.131-.006-.038-.35-.17-.354-.844-.032-1.677.238-2.522.253-1.004.019-2.033.083-3.01-.151-.236-.057-.096-.602-.335-.649-1.297-.25-2.641-.267-3.96-.183-.746.048 2.969.253 2.223.294-1.53.084-3.062-.243-4.591-.164-.643.033 2.55.284 1.907.303-1.585.046-3.167-.191-4.752-.22-.948-.017-2.513-.805-2.845.084-.307.826 1.672.636 2.552.703.488.037.923-.368 1.411-.4.113-.008.056.28.168.294.942.122 1.899.124 2.849.096.169-.005-.648-.168-.48-.166 1.639.019 6.529-.037 4.91.215-2.213.346-10.095.372-12.974-.158-.22-.04.684-.495.46-.492-1.43.02-2.825.556-4.254.544-.72-.006-1.682.005-2.075-.598-.288-.443 1.298.283 1.577-.166.231-.372-.836-.323-1.274-.322-1.162.005-4.287-.485-3.47.342 1.053 1.065 3.104-.015 4.448.647.85.42-1.9.242-2.843.144-.149-.016.294-.408.145-.424-3.156-.33-6.344-.845-9.505-.559-1.568.142 3.183.349 4.615 1.002.918.419-2.005-.248-3.013-.27-2.108-.047-4.216.1-6.324.065-.37-.006 1.473-.135 1.102-.152-1.158-.053-2.32.009-3.478.043-.107.003.424.057.317.05-.317-.02-.632-.084-.95-.092-.057-.001-.1.065-.157.065-2.004 0-4.01.004-6.012-.063-25.969-.874 14.295.583 4.418-.37-2.47-.238-4.963-.127-7.442-.26-.316-.017 1.262-.069.946-.087-1.212-.073-2.435-.218-3.64-.073-.19.023.143.428.33.469.985.218 2.105-.168 3.013.27.53.257-1.143.302-1.73.35-1.26.106-2.527.131-3.792.112-.37-.005 1.454-.03 1.103-.152-.498-.172-1.109.22-1.582-.013-6.38-3.142 35.067 8.95 4.417-.37-1.624-.493-3.38-.327-5.074-.45-.321-.022 1.276.143.954.152-1.319.04-2.65-.247-3.957-.063-.446.063.88.23 1.279.441.293.156-.626-.258-.958-.27-.27-.011-.514.2-.784.202-.533.002-1.054-.194-1.587-.193-.22 0-.408.199-.627.198-1.006-.004-2.03.013-3.011-.211-.156-.035.145-.472-.014-.479-2.054-.079-4.106.232-6.162.241-.377.002-.736-.205-1.113-.207-.844-.003-3.285-.173-2.525.194 1.15.556 2.566.13 3.808.427.193.046-.266.392-.463.373-.512-.05-.926-.527-1.44-.556-.691-.04-1.354.339-2.046.359-1.006.03-2.007-.283-3.01-.21-.15.01.314.374.17.413-.61.166-1.27.139-1.898.056-.268-.036 1.052-.153.786-.203-.99-.184-2.005-.216-3.012-.21-1.476.007-2.948.345-4.421.249-1.055-.069 4.206-.24 3.153-.332-3.101-.27-6.226-.296-9.338-.205-.264.008-.88.47-.617.497 1.73.174 6.957-.002 5.218-.033-2.583-.047-5.17-.122-7.75-.012-1.954.083-3.883.482-5.835.59-.433.024 1.679-.243 1.256-.336-.875-.194-1.798.119-2.689.019-.112-.013.262-.295.15-.304-.425-.033-.842.136-1.26.217-.052.01.21-.007.158-.005-1.527.065-3.055.12-4.581.194-.474.023 1.835.192 1.422-.041-.657-.372-1.473-.36-2.226-.414-.631-.046-2.44-.206-1.894.115.683.405 1.92-.48 2.377.17.424.604-1.475.069-2.212.065-.16 0 .63-.053.472-.074-.788-.1-1.605.015-2.377-.17-.128-.03.278-.367.147-.363-1.06.031-2.09.42-3.15.452-1.27.037-2.544-.084-3.804-.248-.144-.018-.18-.29-.325-.29-.846.007-1.708.077-2.52.314-6.164 1.799 53.818-1.041 3.65.432-2.003.058-4.01-.053-6.01.056-.428.024 1.7.168 1.272.202-1.209.097-2.435.141-3.638-.013-.166-.02-.005-.465-.173-.473-.691-.036-1.353.365-2.045.359-.91-.008-1.864-.042-2.7-.4-.393-.167 1.666-.092 1.258-.216-.862-.263-3.561.025-2.694-.22 1.015-.288 2.143.35 3.166.086.774-.2-1.583-.313-2.382-.29-1.375.041-3.263-.612-4.099.48-.625.818 3.88.87 2.88 1.113-2.56.624-5.275.28-7.905.112-.634-.04-1.134-.626-1.76-.726-.678-.108-1.368.1-2.053.12-.317.01 1.263-.077.947-.088-2.479-.087-4.967.061-7.439-.14-.276-.023-.377-.464-.648-.52-.62-.128-1.266.025-1.898-.004-.107-.005.42-.064.314-.07-1.107-.055-2.217-.139-3.324-.082-.225.012.864.201.64.221-1.208.108-2.444-.17-3.637.047-.682.124 1.372.203 2.063.239.066.003.089-.124.155-.124.74-.004 2.901-.168 2.217.114-1.227.506-2.61.54-3.936.594-.346.015-.616-.408-.96-.39-3.219.167-6.402.81-9.621.94-2.27.092-4.545-.103-6.81-.279-.543-.042-2.135-.316-1.592-.372 2.411-.249 4.845-.275 7.269-.213.5.013.936.41 1.436.437.74.039 2.882.062 2.208-.245-1.165-.531-4.258.713-3.811-.487.479-1.285 2.745-.11 4.104-.3.286-.04 1.057-.303.779-.382-1.179-.334-2.427-.367-3.65-.431-.08-.005.087.24.007.239-1.113-.008-2.218-.327-3.33-.262-.307.018-.47.46-.775.502-1.62.219-3.262.314-4.895.264-.338-.011.633-.238.937-.387.047-.023-.21.006-.158.004.843-.024 3.326.202 2.529-.074-1.332-.46-8.323-.017-8.698.076-.692.171 1.662-.046 2.072.538.334.475-2.183-.447-1.742-.069.675.578 3.42.567 2.554.763-2.417.546-4.965.046-7.425.338-.288.034-.327.571-.614.617-1.927.306-3.89.487-5.84.41-.29-.01.894-.537.615-.616-.811-.23-3.367.167-2.529.074 1.573-.174 3.182-.02 4.736-.319.48-.092-1.833-.035-1.433-.317.56-.395 2.731-.026 2.052-.12-1.15-.159-2.348-.326-3.482-.077-.376.083 1.347.558.968.63-1.916.362-3.905.082-5.844.291-.426.046 1.657.013 1.272.202-.616.302-1.464-.176-2.05.18-.497.301 2.317-.038 1.74.01-1.735.14-3.483.09-5.213.272-.683.072 2.744.104 2.059.06-1.53-.1-3.063-.306-4.594-.225-1.068.056-2.08.526-3.145.63-.144.015-.18-.272-.324-.289-1.366-.162-2.764-.01-4.12-.238-.372-.063 1.464-.176 1.1-.272-.818-.215-1.715-.313-2.535-.105-.256.065.117.701-.135.782-.803.258-1.693.183-2.529.074-.223-.029-.264-.444-.488-.464-1.47-.136-2.956.114-4.428.01-.345-.024-.615-.412-.96-.39-.912.056-1.913.106-2.671.616-.482.324 2.319-.026 1.74.009-1.21.074-2.43-.028-3.635.107-.75.083-1.446.48-2.198.543-1.418.12-2.865.23-4.27.006-.887-.141 1.793-.129 2.681-.259.21-.03-.425-.008-.634-.04-.104-.017.415.024.316-.01-.52-.18-2.128-.295-1.595-.432.772-.2 2.403 1.026 2.38.23-.025-.853-2.809-.14-2.4-.888.437-.795 1.803.208 2.7.34.104.015-.421.005-.316.009 1.003.037 2.008.175 3.008.091.281-.023-1.08-.241-.8-.276 2.619-.32 5.254-.586 7.892-.59.33-.001.479.547.808.575.792.066 1.744.189 2.363-.31.494-.397-1.281.074-1.9-.063-.117-.026.107-.337-.01-.36-1.728-.323-3.484-.502-5.238-.624-1.684-.117-3.382.056-5.064-.09-.324-.029 1.266-.242.94-.268-1.05-.082-2.153-.218-3.16.093-.655.203-.875 1.202-1.541 1.363-1.436.344-2.98-.215-4.427.07-.282.055.773.632.496.703-.674.174-1.37-.29-2.066-.298a10.5 10.5 0 0 0-2.365.249c-.36.08 1.478.036 1.108.027-1.108-.027-2.217-.025-3.324-.082-.369-.019 1.47.026 1.106-.032-.996-.159-3.392.664-3.013-.271.396-.977 2.12.07 3.16-.093.425-.066-1.668-.038-1.27-.202.985-.406 2.223-.037 3.146-.571.593-.344-2.743-.014-2.058-.06 1.21-.08 2.428.048 3.636-.046.85-.067 1.67-.357 2.519-.434.787-.07 3.017.45 2.372-.01-.78-.556-1.898-.363-2.857-.335-.298.01-.483.4-.778.442-.939.137-1.901.183-2.845.084-.232-.025.856-.294.624-.318-1.417-.144-2.851.039-4.272-.054-.37-.024.785.04 1.103-.152.176-.107.031-.427.14-.603.063-.102-.11.363.01.36.852-.026 1.668-.394 2.519-.434 1.423-.067 2.849.156 4.273.114.69-.02-2.74-.062-2.061-.179 1.09-.188 2.219-.144 3.32-.038.325.032-1.266.235-.941.268 1.997.2 4.012.343 6.017.242 1.065-.054-2.447.393-3.174-.386-.648-.694 1.9.102 2.848.036.095-.006.055-.24.151-.244.533-.015 1.055.169 1.587.193.04.002-.043-.123-.003-.12 1.273.104 3.771-.85 3.809.428.037 1.266-2.606-.494-3.799-.068-.86.307 1.79.462 2.703.459 1.428-.005 2.921.023 4.256-.484.744-.283-1.647.084-2.38-.23-.31-.133.601-.367.939-.386.432-.025.845.194 1.272.262.02.003-.022-.061-.002-.06.953.052 1.9.222 2.854.215 2.53-.016 5.054-.312 7.584-.282.16.002-.465.359-.305.368 1.683.1 3.38.08 5.058-.089.843-.084-3.383-.16-2.536-.165 2.48-.012 4.985-.216 7.439.141 1 .146-3.987.332-2.99.507 1.556.274 3.18.072 4.738-.199.204-.035-.38-.574-.175-.593 1.317-.122 2.688.604 3.96.243.983-.279-1.998-.476-3.019-.51-1.843-.063-3.685.24-5.53.222-.326-.003 1.267-.241.942-.267-1.577-.128-3.164-.047-4.746-.04-.02 0 .02.064.002.06-.272-.075-.924-.024-.8-.277.14-.284 1.259.035.949-.028-.994-.2-4-.638-3.017-.39 1.406.355 2.842.68 4.292.712 1.69.037 3.384-.198 5.046-.507.188-.035.488-.443.302-.488-.821-.196-3.275.357-2.533-.045.881-.478 2-.278 3-.208 3.87.27 4.387 1.653 8.717.582.937-.232-2.446.417-2.861-.455-.386-.81 1.796.154 2.692.101 1.794-.106 4.213.807 5.36-.576 1.077-1.299-3.368.204-5.055.208-.219 0 .846-.188.627-.198-.737-.034-2.938.25-2.21.125 1.145-.197 2.31-.266 3.469-.342.066-.004-.22.122-.154.125.579.026 1.174.082 1.738-.051.116-.028-.13-.35-.01-.36 2.573-.214 5.161-.17 7.741-.286.107-.005-.424-.06-.317-.051 1.745.161 3.481.47 5.234.505.175.003-.499-.37-.328-.41a11.704 11.704 0 0 1 3.313-.276c.16.01-.144.452.014.478 1.303.217 2.674.488 3.959.183.749-.177-1.48-.426-2.231-.593-.275-.06.517.287.798.276 1.847-.072 3.673-.513 5.521-.521a17.838 17.838 0 0 1 4.126.477c.823.193-1.696-.22-2.533-.105-.48.066.946.272 1.43.257 1.637-.048 3.272-.2 4.891-.442.47-.071-.95-.072-1.426-.078-.02 0 .022.061.002.06-.742-.059-2.964-.187-2.22-.235 1.316-.084 2.637.103 3.956.124.02 0-.021-.06-.001-.06 2.371-.05 4.746-.213 7.115-.09.438.024-1.691.368-1.254.397.845.055 1.689-.157 2.521-.314.208-.039-.845-.03-.633-.041 1.105-.057 2.215-.18 3.318-.097.45.033.83.493 1.279.441.34-.04.43-.632.77-.681.942-.137 1.9.167 2.852.156.22-.003.408-.198.627-.198 3.904-.001 7.808.31 11.71.195 1.434-.042-5.473.387-4.283-.413 1.443-.971 3.474-.254 5.213-.213.91.021 1.791.377 2.7.4.586.014 1.147-.284 1.732-.29 1.69-.02 3.377.24 5.068.21.145-.003.162-.305.308-.309.9-.026 1.816.02 2.694.22.128.03-.254.288-.147.364.172.122.843-.03.633-.019-2.843.148-5.692.2-8.53.43-.176.015.305.216.482.226.318.017.63-.198.944-.148.099.016-.09.285.01.3 1.627.229 3.275.52 4.914.394.818-.063-2.365.231-2.39-.589-.023-.79 1.588.142 2.374.05.144-.016-.464-.329-.325-.29.45.128.82.507 1.282.562 1.047.124 2.11-.002 3.163-.033.264-.008-1.057-.042-.793-.037 1.478.03 2.955.153 4.433.11.326-.01 1.265-.225.941-.268-1.414-.187-2.872.078-4.276-.173-.651-.117-2.332-.563-1.766-.906 1.036-.63 2.418-.226 3.63-.227 2.218 0 4.432.23 6.65.224.096 0 .055-.242.151-.244 2.32-.048 4.643.163 6.963.095.484-.014.929-.335 1.413-.34 4.905-.054 9.81.16 14.715.166.322 0-1.276-.142-.954-.151 1.055-.031 2.11.112 3.166.086 2.687-.064 5.368-.362 8.056-.356 1.748.004 3.483.4 5.231.385.211-.002.251-.43.462-.432 7.33-.079 14.66.16 21.99.192.216.001-.85-.103-.635-.1 4.906.043 9.814.044 14.717.226.805.03 1.727-.06 2.384.409.327.233-1.494.488-1.093.51 1.527.087 3.12.147 4.578-.313.507-.16-1.965-.576-1.443-.676 1.196-.23 2.427.235 3.645.252a85.327 85.327 0 0 0 6.007-.117c.53-.03-1.057-.098-1.586-.133-.107-.007.426.057.319.05-1.48-.085-5.918-.219-4.438-.288 2.635-.123 5.277.02 7.912.127.8.032 1.587.2 2.381.29.052.005.106-.012.158-.005.583.074 1.16.28 1.747.248.242-.014.381-.348.622-.378.224-.028.414.222.639.22 2.213-.01 4.422-.24 6.635-.254 1.27-.008 2.534.177 3.802.188.22.002-.857-.154-.638-.16 4.699-.139 12.974-.439 18.2.303.527.075-2.078.112-1.574.286.951.328 2.005.24 3.011.21.233-.006.392-.29.623-.317 1.677-.19 3.364-.329 5.052-.328 1.641.001 3.272.29 4.913.335.588.016-1.228.027-1.747-.248-.42-.223.95.092 1.426.078.04-.001-.044-.123-.004-.12 1.643.132 3.277.363 4.918.514.02.002-.021-.06-.001-.06.37.01 1.292.41 1.11.088-.22-.387-1.721-.392-1.277-.382 1.593.035 3.169.35 4.758.459.066.004.089-.125.155-.124.426.005.844.132 1.27.142.066.002-.228-.12-.162-.115 1.875.165 5.287.855 7.445.38 8.344-1.834-79.624 1.358-4.121-.298 4.004-.088 8.007-.341 12.012-.293 3.227.04 6.44.443 9.665.555.132.004-.455-.222-.324-.23 5.559-.36 13.113.274 18.042.368.322.006.623-.233.943-.207 4.715.386 9.401 1.098 14.12 1.441.263.02-.91-.449-.647-.46 1.796-.075 3.589.239 5.386.261.377.005-1.49-.17-1.114-.206 2.361-.233 4.029.197 6.35.771.153.038-.63-.018-.474.014.576.118 1.163.177 1.747.248.056.007-.216-.059-.16-.055 9.827.654 19.647 1.41 29.478 2.008.54.033-2.13-.329-1.59-.312 1.537.046 3.064.283 4.598.403.056.005-.216-.059-.16-.055 1.64.117 3.276.272 4.915.395.107.008-.425-.06-.318-.05 2.696.21 5.385.53 8.086.66 3.152.152 3.655-.587 6.025.481.193.087-.832-.117-.634-.04.67.258 2.68.211 2.073.597-1.59 1.01-7.228.85-8.835.738-1.702-.119-3.375-.58-5.08-.629-.394-.011-.7.433-1.094.451-.903.04-1.797-.199-2.697-.28-1.109-.1-2.216-.247-3.33-.261-.176-.003.659.216.482.225-1.107.056-2.225.06-3.324-.082-.144-.019.444-.261.307-.308-.45-.156-1.1.27-1.426-.078-.257-.276 1.416-.066 1.1-.272-.586-.382-1.37-.313-2.067-.358-.281-.019 1.074.215.799.275-.67.148-1.833-.647-2.056.001-.213.617 1.61-.157 1.91.423.244.471-1.046.257-1.575.226-1.07-.063-2.113-.382-3.178-.506-.38-.044 1.497.28 1.115.267-2.276-.077-4.54-.349-6.815-.459-.219-.01.857.164.638.161-1.164-.014-2.322-.208-3.486-.197-.898.01-1.784.294-2.681.259-.862-.034-1.684-.409-2.544-.465-.633-.04-1.269.284-1.893.176-.792-.138-1.437-.88-2.24-.892-.636-.01-1.1.676-1.716.828-.182.045-.297-.267-.483-.285-.473-.045-.95.043-1.42.102-.057.007.215.053.159.055-.738.022-1.493-.153-2.214.005-.324.071 1.288.272.957.271-2.167-.006-4.327-.278-6.494-.288-.792-.004-1.572.246-2.365.249-1.533.005-3.06-.197-4.593-.224-.58-.01-1.161.184-1.737.11-.13-.016-.038-.35-.168-.354-1.37-.036-2.74.361-4.106.24-.395-.035-.573-.67-.969-.69-1.216-.059-2.516-.039-3.624.466-.675.308 1.478.196 2.22.174.636-.018-1.267-.216-1.904-.183-.281.014-.5.3-.781.322-.947.075-1.912.123-2.848-.036-.148-.025-.004-.425.145-.423.5.004.937.406 1.437.436.428.026 1.674-.176 1.257-.276-.062-.015-6.054-1.212-7.77-.67-.16.05.338.45.172.474-1.564.23-3.16.28-4.74.199-.174-.01.48-.416.305-.428-.896-.064-1.784.243-2.682.258-3.9.066-7.805.108-11.704-.015-.637-.02 1.252-.309 1.889-.295.198.004.582.517.484.345-.204-.36-.419-.824-.818-.934-.561-.155-1.15.222-1.733.23-.742.01-1.502.015-2.22-.174-.261-.069 1.053-.244.786-.203-.582.091-1.142.35-1.73.35-.803 0-1.59-.472-2.383-.349-.37.058.955.197.966.57.01.339-.602.352-.938.387-.735.078-1.491-.198-2.216-.054-.284.056 1.09.303.802.335-1.206.137-2.43.075-3.64-.013-.186-.013-.295-.283-.482-.285-2.424-.022-4.845.208-7.27.214-.22 0 .847-.194.628-.198-1.897-.034-3.797.207-5.692.107-1.023-.055-2-.491-3.022-.57-.684-.053-1.364.198-2.05.18-1.484-.039-2.96-.24-4.44-.349-.898-.066 3.582.05 2.696.22-3.077.593-8.443.024-11.248-.627-.424-.099-.543-.815-.975-.87-1.204-.152-2.442.035-3.63.287-42.115 8.936 146.918-26.95 1.908.303-1.356.255-2.807.104-4.095.599-.597.23 1.266.282 1.905.243.12-.007.059.223-.307.309z"/></g><g><path fill="#9f54eb" d="M16.008 11.555l.317-.01-.474.075.157-.065z"/></g><g><path fill="#9f54eb" d="M208.331 11.238c-.158.005-.318-.05-.32-.11"/></g><g><path fill="#9f54eb" d="M171.48 11.302l-.002-.06c.158-.005.16.055.002.06z"/></g><g><path fill="#9f54eb" d="M13.86 13.833l.635.041c-.317.01-.317.01-.635-.041z"/></g></g></g></svg>