<svg xmlns="http://www.w3.org/2000/svg" width="13" height="12" viewBox="0 0 13 12"><g><g><g/><g><path fill="#423e2e" d="M0 9.266V.52h9.153v6.742H7.49c-1.72 0-3.445 0-5.165-.005a.61.61 0 0 0-.468.19C1.313 7.997.758 8.53.204 9.077c-.051.054-.112.11-.204.189zm7.622-5.737h-6.09v.71h6.09v-.71zm-5.337-.795h4.579v-.705h-4.58v.705zm4.574 2.294H2.295v.71h4.564v-.71z"/></g><g><path fill="#423e2e" d="M12.999 2.78v8.746c-.056-.045-.112-.08-.153-.12-.58-.57-1.165-1.14-1.74-1.714a.565.565 0 0 0-.443-.18c-2.167.005-4.34.005-6.507.005H3.82v-1.5h6.11V2.786C10.965 2.78 11.972 2.78 13 2.78z"/></g></g></g></svg>