<svg xmlns="http://www.w3.org/2000/svg" width="15" height="14" viewBox="0 0 15 14"><g><g><g/><g><path fill="#423e2e" d="M8.483 11.191H1.183c-.493 0-.613-.111-.613-.568V1.179C.575.737.69.63 1.172.63H13.99c.46 0 .58.112.58.538v9.47c0 .437-.126.548-.602.548H11.94v.691c0 .432.005.864 0 1.296-.006.411-.329.569-.706.35-.262-.152-.525-.31-.771-.482-.175-.122-.317-.143-.503-.005-.24.177-.503.34-.771.472a.77.77 0 0 1-.476.061c-.202-.046-.235-.234-.235-.417 0-.558 0-1.117.005-1.676v-.285zm1.728-3.616c-.957 0-1.717.706-1.722 1.59-.006.884.76 1.605 1.7 1.615.941.01 1.75-.737 1.745-1.61.006-.874-.776-1.595-1.723-1.595zM7.548 3.83s0 .006 0 0h2.27c.563 0 1.132.006 1.695 0 .24 0 .41-.147.426-.345.017-.188-.142-.37-.371-.406-.071-.01-.148-.005-.22-.005H7.418c-1.214 0-2.423-.006-3.637.005-.147 0-.328.03-.42.116-.088.082-.121.26-.105.381.033.194.208.254.416.254h3.877zM6.236 6.28H8.8c.301 0 .465-.118.493-.331.027-.244-.164-.422-.487-.422a846.825 846.825 0 0 0-5.08 0c-.318 0-.51.153-.515.381 0 .229.186.371.509.371h2.516zm-1.291 1.7H3.66c-.192 0-.334.067-.41.235-.12.269.082.513.454.518.825.01 1.657.005 2.482 0 .307 0 .47-.153.465-.386-.005-.24-.164-.361-.481-.366H4.945z"/></g></g></g></svg>