<svg xmlns="http://www.w3.org/2000/svg" width="25" height="35" viewBox="0 0 25 35"><g><g><g/><g><path d="M0 .15h21.334C23.58.15 25 1.598 25 3.935c.013 8.806 0 17.611 0 26.417 0 2.35-1.408 3.798-3.653 3.798H0v-34zm12.43 21.396c4.402.013 7.94-3.639 7.978-8.248.051-4.542-3.538-8.327-7.889-8.353-4.363-.027-7.953 3.678-7.978 8.26-.026 4.582 3.513 8.328 7.89 8.341zm6.685 4.197v-1.9H5.809v1.9h13.306zm-11.53 3.945h9.78v-1.873h-9.78v1.872z"/></g><g><path d="M14.257 14.29c-.152 1.66-.33 3.254-1.167 4.675-.457.77-.774.784-1.23.013-.838-1.42-.99-3.028-1.18-4.688h3.577z"/></g><g><path d="M14.261 12.196c-.215.014-.38.04-.532.04H10.71c.14-1.673.33-3.267 1.142-4.688.469-.81.824-.797 1.293.04.787 1.42.964 2.988 1.117 4.608z"/></g><g><path d="M6.56 14.26h2.144c.266 1.488.532 2.948.786 4.383-1.306-.425-2.74-2.537-2.93-4.383z"/></g><g><path d="M15.44 18.762c.279-1.54.533-2.988.812-4.502h2.181c-.342 1.992-1.357 3.44-2.993 4.502z"/></g><g><path d="M9.526 7.72c-.279 1.5-.545 2.962-.824 4.476H6.52c.355-1.98 1.37-3.427 3.006-4.476z"/></g><g><path d="M16.232 12.193c-.267-1.501-.533-2.962-.812-4.463 1.624 1.01 2.613 2.457 3.006 4.463h-2.194z"/></g></g></g></svg>