<svg xmlns="http://www.w3.org/2000/svg" width="4" height="18" viewBox="0 0 4 18"><g><g><g/><g><path fill="#5f318d" d="M0 2.011A1.991 1.991 0 0 1 1.975 0a2 2 0 0 1 2.032 1.99c0 1.11-.903 2.018-2.01 2.018C.896 4 .007 3.108 0 2.01z"/></g><g><path fill="#5f318d" d="M0 15.994c0-1.097.889-1.997 1.982-2.004A2.003 2.003 0 0 1 4 15.994a1.999 1.999 0 1 1-4 0z"/></g><g><path fill="#5f318d" d="M1.962 10.99A1.974 1.974 0 0 1 .001 8.944 1.976 1.976 0 0 1 2.04 7.011 1.98 1.98 0 0 1 4 9.064a1.974 1.974 0 0 1-2.039 1.926z"/></g></g></g></svg>