<svg xmlns="http://www.w3.org/2000/svg" width="27" height="27" viewBox="0 0 27 27"><defs><clipPath id="uds6a"><path d="M26.16 13.835c0 7.15-5.795 12.946-12.945 12.946S.27 20.985.27 13.835C.27 6.685 6.066.89 13.215.89c7.15 0 12.946 5.796 12.946 12.945z"/></clipPath></defs><g><g><g><path fill="#c4c4c4" d="M26.16 13.835c0 7.15-5.795 12.946-12.945 12.946S.27 20.985.27 13.835C.27 6.685 6.066.89 13.215.89c7.15 0 12.946 5.796 12.946 12.945z"/></g><g clip-path="url(#uds6a)"><g transform="rotate(90 13.5 3.5)"><path fill="#ff2929" d="M7.96-10.44h10.518v28.318H7.96z"/></g><g transform="rotate(90 13.5 14.5)"><path fill="#ffda44" d="M7.96.08h10.518v28.318H7.96z"/></g><g transform="rotate(90 13.5 24.5)"><path fill="#ff2929" d="M7.96 10.6h10.518v28.318H7.96z"/></g></g></g></g></svg>