<svg xmlns="http://www.w3.org/2000/svg" width="33" height="34" viewBox="0 0 33 34"><g><g><g/><g><path d="M33 16.7c0 9.1-7.4 16.5-16.5 16.5S0 25.8 0 16.7 7.4.2 16.5.2 33 7.6 33 16.7zm-2.765 0c0-1.263-.187-2.488-.51-3.648-.624.548-1.288.986-1.843 1.018a1.146 1.146 0 0 1-.883-.328 4.067 4.067 0 0 0-.908-.664c.496 1.308 1.972 2.662 2.507 3.074.155.116.245.29.264.483a.673.673 0 0 1-.174.523c-.902 1.005-1.882 2.423-1.882 2.977 0 .825-.458 1.225-.8 1.521-.347.303-.573.497-.573 1.232 0 2.333-3.551 3.312-3.957 3.416a.702.702 0 0 1-.677-.207c-.161-.174-1.553-1.766-1.553-3.21 0-.792.232-1.166.496-1.508.135-.174.187-.245.187-.554 0-.4-.123-.677-.277-1.031-.18-.42-.413-.948-.413-1.715-.206-.296-2.024-.69-4.125-.69-1.366 0-2.752-.708-2.752-2.062 0-.174-.02-.367-.039-.573-.077-.89-.193-2.23.929-3.352 1.366-1.373 3.474-1.58 4.608-1.58 1.05 0 1.489.207 1.882.394.335.161.625.297 1.56.297.277 0 .548 0 .818.006 1.012.013 2.166.039 2.501-.296.032-.033.123-.117.123-.4 0-.767-2.114-1.373-4.815-1.373-.98 0-1.67.335-2.404.683-.71.342-1.45.696-2.404.696a.683.683 0 0 1-.484-.2c-.393-.393-.554-.921-.464-1.488.2-1.257 1.54-2.462 2.7-3.049.703-.354.832-.574.845-.606-.006 0-.058-.11-.303-.329a.707.707 0 0 1-.232-.496.68.68 0 0 1 .2-.509c.065-.058.155-.09.232-.142a12.65 12.65 0 0 0-1.115-.058c-7.296 0-13.264 5.71-13.71 12.89 1.013.58 1.541 1.522 1.934 2.237.2.355.387.696.574.883.251.252.677.297 1.134.348.632.071 1.818.207 1.818 1.515 0 .806-.393 1.373-.741 1.876-.342.483-.632.908-.632 1.56v2.242a13.699 13.699 0 0 0 9.623 3.945c7.58 0 13.748-6.168 13.735-13.748z"/></g></g></g></svg>