<svg xmlns="http://www.w3.org/2000/svg" width="24" height="31" viewBox="0 0 24 31"><g><g><g/><g><g><g><path d="M5.335 17.282c-.387-5.125.055-8.914 1.355-11.586.21-.43.434-.812.666-1.156-1.1.812-2.268 2.047-3.283 3.922-.797 1.469-1.463 4.281-1.796 7.523-.209 2.047-.247 4.438-.093 5.688l.093.773H4.57c.015-.039.03-.07.046-.11.426-1 .898-2.687.72-5.054z"/></g><g><path d="M15.268.15v2.547c.465.11.914.281 1.332.523 1.858 1.055 6.147 4.586 6.526 4.836.434.282.728.719.828 1.227.101.508 0 1.015-.278 1.437-.233.414-1.239 2.078-2.47 2.078-.108 0-.217-.015-.325-.039l-2.694-.687c-1.045-.258-1.185-.195-1.533-.063-.318.125-.743.297-1.657.399-.201.015-.402.031-.604.031.333.883 3.004 6.524 3.6 7.836.403.883.573 1.61.627 2.21H6.45c.465-1.296.805-3.062.635-5.327C6.202 5.564 10.096 3.955 11.56 3.345l.518-.218.194-.563c0-.008.046-.672.519-1.328a3.08 3.08 0 0 1 .96-.852A3.563 3.563 0 0 1 14.827.15zm.147 7.96c.457 0 .898-.405.875-.882-.023-.476-.387-.883-.875-.883-.457 0-.898.407-.875.883.016.477.38.883.875.883z"/></g></g><g><path d="M3.328 24.25c-.62 0-1.208.297-1.548.813-.194.296-.31.648-.31 1.03v.54h20.655v-.54c0-.382-.116-.734-.31-1.03a1.849 1.849 0 0 0-1.548-.813z"/></g><g><path d="M23.584 28.39H.01v1.758h23.574z"/></g></g></g></g></svg>