<svg xmlns="http://www.w3.org/2000/svg" width="11" height="11" viewBox="0 0 11 11"><g><g><path fill="#6f6f6f" d="M5.173.302h.574c1.709 0 1.911.006 2.586.036.624.029.963.133 1.188.22.299.117.512.255.736.48.224.223.362.437.479.735.087.226.192.564.22 1.188.03.675.037.878.037 2.586 0 1.708-.006 1.91-.037 2.585-.029.624-.133.963-.22 1.188a1.979 1.979 0 0 1-.48.735 1.98 1.98 0 0 1-.735.48c-.225.087-.564.191-1.188.22-.675.03-.877.037-2.586.037-1.71 0-1.912-.007-2.586-.037-.624-.03-.963-.133-1.189-.221a1.982 1.982 0 0 1-.736-.479 1.984 1.984 0 0 1-.479-.735C.67 9.094.565 8.756.537 8.132.507 7.457.5 7.254.5 5.545s.006-1.91.037-2.585c.028-.624.133-.963.22-1.188.116-.299.255-.512.48-.736.223-.224.436-.363.735-.48.226-.087.565-.191 1.189-.22C3.75.309 3.98.301 5.173.3zm3.99 1.062a.768.768 0 1 0 0 1.537.768.768 0 0 0 0-1.537zm-3.416 7.47a3.286 3.286 0 1 0 0-6.571 3.286 3.286 0 0 0 0 6.572z"/></g><g><path fill="#6f6f6f" d="M5.753 3.41a2.133 2.133 0 1 1 0 4.267 2.133 2.133 0 0 1 0-4.267z"/></g></g></svg>