<svg xmlns="http://www.w3.org/2000/svg" width="52" height="51" viewBox="0 0 52 51"><g><g><g/><g><g><path fill="#4dd10f" d="M51.743 34.143v14.635c0 .82-.677 1.472-1.5 1.472H2.23c-.837 0-1.501-.651-1.501-1.459V34.143c0-2.943 1.766-5.469 4.316-6.64a6.72 6.72 0 0 1-1.82-4.597c0-3.763 3.109-6.836 6.947-6.836s6.973 3.073 6.973 6.836c0 2.617-1.501 4.896-3.706 6.042 1.355 1.328 2.205 3.164 2.205 5.195v1.471h4.489c2.484 0 4.489 1.98 4.489 4.401a4.45 4.45 0 0 1-.252 1.472h3.705a4.569 4.569 0 0 1-.252-1.472c0-2.435 2.018-4.4 4.489-4.4h4.489v-1.472c0-2.031.837-3.867 2.205-5.195-2.205-1.16-3.706-3.425-3.706-6.042 0-3.763 3.134-6.836 6.973-6.836 3.838 0 6.972 3.073 6.972 6.836a6.72 6.72 0 0 1-1.82 4.596c2.538 1.172 4.304 3.698 4.317 6.64zm-9.47-7.33c2.192 0 3.985-1.759 3.985-3.907S44.465 19 42.274 19c-2.192 0-3.985 1.758-3.985 3.906s1.78 3.906 3.985 3.906zM6.203 22.905c0 2.148 1.793 3.906 3.984 3.906 2.192 0 3.985-1.758 3.985-3.906S12.378 19 10.186 19c-2.191 0-3.984 1.758-3.984 3.906zm3.493 14.18v1.953c0 1.354 1.129 2.448 2.497 2.448h7.968c.837 0 1.501-.651 1.501-1.472 0-.82-.677-1.471-1.5-1.471h-5.977c-.837 0-1.5-.664-1.5-1.471v-2.93c0-2.435-2.02-4.401-4.49-4.401s-4.476 1.979-4.476 4.4v13.191h6.973v-3.138c-2.298-.638-3.984-2.721-3.984-5.17v-1.952c0-.82.664-1.472 1.487-1.472.837 0 1.5.651 1.5 1.485zM38.78 44.39H13.679v2.93h25.102zm9.96-10.273c0-2.435-2.005-4.401-4.488-4.401-2.484 0-4.49 1.979-4.49 4.4v2.93c0 .82-.677 1.472-1.5 1.472h-5.977c-.836 0-1.5.651-1.5 1.471 0 .82.677 1.472 1.5 1.472h7.969c1.381 0 2.497-1.107 2.497-2.448V37.06c0-.82.677-1.472 1.5-1.472.837 0 1.501.664 1.501 1.472v1.953c0 2.46-1.686 4.531-3.984 5.169v3.138h6.973z"/></g><g><path fill="#4dd10f" d="M18.253 14.898c-1.926 0-3.493-1.536-3.493-3.411V3.674c0-1.888 1.567-3.424 3.493-3.424h15.938c1.925 0 3.492 1.536 3.506 3.411v7.813c0 1.888-1.568 3.424-3.493 3.424h-.505v2.448c0 .56-.332 1.068-.85 1.315a1.542 1.542 0 0 1-1.58-.182l-4.57-3.58h-.942l-4.569 3.58a1.513 1.513 0 0 1-1.58.182 1.45 1.45 0 0 1-.85-1.315v-2.448zm-.491-3.411a.5.5 0 0 0 .504.495h1.992c.837 0 1.501.664 1.501 1.471v.86l2.55-2.006c.266-.208.585-.325.93-.325h1.992c.332 0 .664.117.93.325l2.55 2.005v-.859c0-.82.677-1.471 1.5-1.471h1.993a.5.5 0 0 0 .504-.495V3.674a.5.5 0 0 0-.504-.494H18.266a.5.5 0 0 0-.504.494z"/></g><g><path fill="#4dd10f" d="M22.24 9.04h7.97c.823 0 1.5-.651 1.5-1.472 0-.82-.677-1.458-1.5-1.458h-7.97c-.823 0-1.5.651-1.5 1.471 0 .82.677 1.459 1.5 1.459z"/></g></g></g></g></svg>