<svg xmlns="http://www.w3.org/2000/svg" width="35" height="36" viewBox="0 0 35 36"><g><g><g/><g><path d="M1.025 15.37h2.051a1.024 1.024 0 1 0 0-2.05h-2.05a1.024 1.024 0 1 0 0 2.05z"/></g><g><path d="M2.05 9.64a1.02 1.02 0 0 0 1.448 0 1.02 1.02 0 0 0 0-1.448L2.05 6.742A1.025 1.025 0 0 0 .6 8.192z"/></g><g><path d="M2.052 19.05L.602 20.5a1.025 1.025 0 0 0 1.45 1.45l1.449-1.45a1.025 1.025 0 0 0-1.45-1.45z"/></g><g><path d="M33.976 13.32h-2.05a1.024 1.024 0 1 0 0 2.05h2.05a1.024 1.024 0 1 0 0-2.05z"/></g><g><path d="M32.952 9.638L34.4 8.19a1.025 1.025 0 0 0-1.45-1.45l-1.449 1.45a1.02 1.02 0 0 0 0 1.45 1.02 1.02 0 0 0 1.45 0z"/></g><g><path d="M34.398 21.94a1.02 1.02 0 0 0 0-1.448l-1.449-1.45a1.025 1.025 0 0 0-1.45 1.45l1.45 1.449a1.02 1.02 0 0 0 1.45 0z"/></g><g><path d="M22.632 14.345V13.32h-1.026a3.08 3.08 0 0 0-3.076 3.076v1.026h1.025a3.08 3.08 0 0 0 3.077-3.077z"/></g><g><path d="M10.224 25.695h6.248v-6.22h-1.026a5.129 5.129 0 0 1-5.127-5.127v-2.05c0-.568.458-1.026 1.026-1.026h2.05c1.682 0 3.165.827 4.102 2.085.937-1.258 2.42-2.085 4.102-2.085h2.05c.568 0 1.026.458 1.026 1.025v2.05a5.129 5.129 0 0 1-5.127 5.128h-1.025v6.22h6.254a8.426 8.426 0 0 1 1.983-4.279 12.282 12.282 0 0 0 3.042-8.094c0-3.718-1.661-7.273-4.546-9.618-2.892-2.351-6.686-3.26-10.404-2.481-4.628.97-8.395 4.792-9.38 9.42-.833 3.937.199 7.888 2.824 10.842 1.066 1.196 1.716 2.707 1.928 4.21z"/></g><g><path d="M13.395 13.32H12.37v1.025a3.08 3.08 0 0 0 3.076 3.077h1.026v-1.026a3.08 3.08 0 0 0-3.077-3.076z"/></g><g><path d="M24.675 28.765V27.74H10.32v1.025a3.08 3.08 0 0 0 3.076 3.077H21.6a3.08 3.08 0 0 0 3.076-3.077z"/></g><g><path d="M21.578 33.9H13.43c.937 1.237 2.406 2.05 4.074 2.05 1.668 0 3.138-.813 4.074-2.05z"/></g></g></g></svg>