<svg xmlns="http://www.w3.org/2000/svg" width="48" height="48" viewBox="0 0 48 48"><g><g><g/><g><path fill="#4dd10f" d="M47.985 42.905c0 3.267-1.618 4.827-4.967 4.827-10.067 0-20.115.018-30.181 0-6.285 0-11.403-4.148-12.607-10.13-1.336-6.608 3.293-13.214 10.142-14.407.771-.129.94-.404.94-1.101-.018-5.506-.018-11.012-.018-16.499 0-3.267 1.618-4.827 4.967-4.827 6.774 0 13.548.019 20.303-.018.847 0 1.486.257 2.07.844 2.822 2.79 5.645 5.56 8.505 8.295.602.588.865 1.212.846 2.037v30.979zm-12.23-39.31c-.245-.037-.32-.074-.414-.074-6.548 0-13.115-.018-19.663 0-1.016 0-1.543.532-1.543 1.56-.019 5.744 0 11.507-.019 17.251 0 .532.17.753.734.826 1.957.275 3.707 1.065 5.325 2.166.339.22.79.385 1.185.385 5.777.018 11.535.018 17.311.018.47 0 .998-.128 1.393.037.47.184 1.054.55 1.185.954.132.404-.132 1.083-.451 1.432-.245.275-.847.312-1.299.312-5.024.018-10.029.018-15.053.018h-.903a717.487 717.487 0 0 0 2.051 5.506H39.631c1.11 0 1.75.495 1.769 1.34.019.88-.64 1.413-1.788 1.413H25.368c-.432 3.285-1.956 5.964-4.628 8.258H43.093c1.712 0 2.089-.385 2.089-2.055v-29.18c0-.33-.038-.643-.038-.936-.132-.055-.188-.092-.244-.092-2.352-.018-4.704-.018-7.056-.018-1.656 0-2.051-.386-2.051-2-.038-2.368-.038-4.717-.038-7.121zM2.845 35.454c.113 5.45 4.573 9.635 10.161 9.525 5.306-.11 9.672-4.533 9.578-9.727-.113-5.45-4.573-9.635-10.161-9.525-5.306.092-9.69 4.552-9.578 9.727zM38.653 9.871h4.064c-1.317-1.285-2.71-2.643-4.064-3.982V9.87z"/></g><g><path fill="#4dd10f" d="M29.652 17.45h10.066c1.148 0 1.825.679 1.637 1.615-.169.88-.809 1.156-1.655 1.156H19.68c-1.111 0-1.75-.495-1.77-1.34-.018-.88.621-1.413 1.788-1.413 3.312 0 6.623 0 9.954-.018 0 .018 0 .018 0 0z"/></g><g><path fill="#4dd10f" d="M10.614 37.472a1446.16 1446.16 0 0 0 5.475-5.358c.47-.478.998-.734 1.694-.514 1.035.33 1.28 1.523.414 2.367-1.543 1.56-3.142 3.065-4.704 4.607-.546.532-1.092 1.1-1.675 1.615-.715.642-1.468.66-2.164 0A87.137 87.137 0 0 1 7.001 37.6c-.658-.66-.658-1.487-.056-2.037.583-.532 1.43-.514 2.088.147.546.532 1.035 1.137 1.58 1.761z"/></g></g></g></svg>