        <svg xmlns="http://www.w3.org/2000/svg" viewBox="0 0 15000 4330" style="clip-rule:evenodd;fill-rule:evenodd;image-rendering:auto;shape-rendering:geometricPrecision;text-rendering:geometricPrecision">
  <defs>
    <style type="text/css">
      .fil0 {
        fill: url(#studyqa-logo-gradient)
      }
    </style>
    <lineargradient id="studyqa-logo-gradient" gradientUnits="userSpaceOnUse" x1="6889" y1="407" x2="6889" y2="1862">
      <stop offset="0" stop-color="#5F318D"></stop>
      <stop offset="1" stop-color="#5F318D"></stop>
    </lineargradient>
  </defs>
  <path class="fil0" d="M437 4066l-437 0 0-784 437 0 0 81-346 0 0 252 325 0 0 81-325 0 0 289 346 0 0 81zm503-301l-205-287 102 0 155 226 154-226 101 0-205 287 215 301-101 0-164-238-167 238-101 0 216-301zm908 312c-39 0-74-7-105-21-32-14-59-36-80-65l-7 0c5 34 7 66 7 97l0 242-89 0 0-852 72 0 13 81 4 0c23-33 49-56 80-70 30-14 65-22 105-22 78 0 138 27 180 80 43 54 64 128 64 225 0 96-22 171-65 225-43 53-103 80-179 80zm-13-534c-61 0-104 17-131 50-27 33-40 86-41 159l0 20c0 82 14 141 41 177 28 36 72 53 133 53 51 0 90-20 119-61 29-41 43-98 43-170 0-74-14-130-43-169-29-40-69-59-121-59zm861 534c-87 0-156-26-206-79-50-53-75-127-75-221 0-95 23-170 70-226 46-56 109-84 188-84 73 0 132 25 175 73 43 48 64 112 64 192l0 56-405 0c2 69 19 122 52 158 33 35 80 53 140 53 63 0 126-13 188-40l0 80c-32 14-61 23-89 29-28 6-62 9-102 9zm-24-535c-48 0-85 15-113 46-28 31-45 73-50 128l308 0c0-56-13-99-38-129-25-30-61-45-107-45zm860-75c26 0 50 2 71 7l-13 82c-24-5-45-8-64-8-48 0-88 20-122 58-34 39-51 87-51 145l0 315-89 0 0-588 74 0 10 109 4 0c22-38 48-68 79-89 31-20 64-31 101-31zm470 599l-89 0 0-588 89 0 0 588zm-97-747c0-21 5-36 15-45 10-10 23-14 38-14 14 0 26 4 37 14 10 10 15 25 15 45 0 20-5 35-15 45-11 9-23 14-37 14-15 0-28-5-38-14-10-10-15-25-15-45zm734 758c-87 0-155-26-206-79-50-53-75-127-75-221 0-95 23-170 70-226 47-56 109-84 188-84 74 0 132 25 175 73 43 48 65 112 65 192l0 56-406 0c2 69 19 122 52 158 34 35 80 53 140 53 64 0 126-13 188-40l0 80c-31 14-61 23-89 29-28 6-62 9-102 9zm-24-535c-47 0-85 15-113 46-28 31-45 73-50 128l308 0c0-56-13-99-38-129-25-30-61-45-107-45zm995 524l0-380c0-48-11-84-33-108-22-23-56-35-102-35-62 0-107 17-136 50-28 33-43 88-43 165l0 308-89 0 0-588 73 0 14 81 5 0c18-30 43-52 76-68 33-16 70-24 110-24 71 0 124 17 160 52 36 34 54 88 54 163l0 384-89 0zm707 11c-85 0-151-26-198-79-47-52-70-126-70-222 0-98 24-175 71-228 48-54 115-81 203-81 28 0 57 3 85 9 28 6 50 14 66 22l-27 76c-20-8-41-15-65-20-23-5-43-8-61-8-120 0-179 76-179 229 0 72 14 128 43 166 29 39 73 58 130 58 49 0 99-10 151-31l0 78c-40 21-89 31-149 31zm737 0c-87 0-156-26-206-79-50-53-76-127-76-221 0-95 24-170 70-226 47-56 110-84 189-84 73 0 132 25 175 73 43 48 64 112 64 192l0 56-405 0c2 69 19 122 52 158 33 35 80 53 140 53 63 0 126-13 188-40l0 80c-32 14-61 23-90 29-28 6-62 9-101 9zm-25-535c-47 0-84 15-112 46-29 31-45 73-50 128l307 0c0-56-12-99-37-129-25-30-61-45-108-45zm1268 461c16 0 31-1 46-3 15-2 26-5 35-7l0 68c-10 5-24 8-43 12-19 2-36 4-51 4-113 0-170-60-170-180l0-350-84 0 0-43 84-37 37-125 52 0 0 136 171 0 0 69-171 0 0 347c0 35 8 62 25 81 17 19 40 28 69 28zm801 63l0-380c0-48-11-84-33-108-22-23-56-35-102-35-62 0-108 17-136 50-28 34-43 89-43 166l0 307-89 0 0-835 89 0 0 253c0 30-1 56-4 76l5 0c18-29 43-51 75-67 33-16 70-25 111-25 72 0 126 18 162 52 36 34 54 88 54 162l0 384-89 0zm720 11c-87 0-155-26-205-79-51-53-76-127-76-221 0-95 24-170 70-226 47-56 110-84 188-84 74 0 132 25 175 73 43 48 65 112 65 192l0 56-405 0c1 69 19 122 52 158 33 35 80 53 140 53 63 0 126-13 188-40l0 80c-32 14-62 23-90 29-28 6-62 9-102 9zm-24-535c-47 0-85 15-113 46-28 31-44 73-49 128l307 0c0-56-12-99-37-129-25-30-61-45-108-45zm1313 535c-85 0-151-26-198-79-46-52-70-126-70-222 0-98 24-175 71-228 48-54 116-81 203-81 28 0 57 3 85 9 28 6 50 14 66 22l-27 76c-20-8-41-15-64-20-24-5-44-8-62-8-120 0-179 76-179 229 0 72 14 128 44 166 29 39 72 58 129 58 49 0 99-10 151-31l0 78c-39 21-89 31-149 31zm891-11l0-380c0-48-11-84-33-108-22-23-56-35-102-35-62 0-107 17-136 50-28 34-43 89-43 166l0 307-89 0 0-835 89 0 0 253c0 30-1 56-4 76l6 0c17-29 42-51 74-67 33-16 70-25 111-25 72 0 126 18 162 52 36 34 54 88 54 162l0 384-89 0zm980-294c0 96-24 170-73 224-48 54-115 81-200 81-52 0-99-12-140-37-41-25-72-60-94-106-23-47-34-101-34-162 0-96 24-171 72-225 48-53 115-80 200-80 82 0 147 28 196 82 49 55 73 129 73 223zm-448 0c0 75 15 132 45 171 30 40 74 59 132 59 59 0 103-19 133-58 30-39 45-97 45-172 0-75-15-132-45-171-30-39-75-58-134-58-58 0-102 19-132 57-30 39-44 96-44 172zm893 294l-89 0 0-588 89 0 0 588zm-97-747c0-21 5-36 15-45 10-10 23-14 38-14 14 0 27 4 37 14 10 10 16 25 16 45 0 20-6 35-16 45-10 9-23 14-37 14-15 0-28-5-38-14-10-10-15-25-15-45zm721 758c-85 0-151-26-198-79-47-52-70-126-70-222 0-98 24-175 71-228 48-54 115-81 203-81 28 0 57 3 85 9 28 6 50 14 66 22l-27 76c-20-8-41-15-65-20-23-5-43-8-61-8-120 0-179 76-179 229 0 72 14 128 43 166 29 39 73 58 130 58 49 0 99-10 151-31l0 78c-40 21-89 31-149 31zm737 0c-87 0-156-26-206-79-51-53-76-127-76-221 0-95 24-170 70-226 47-56 110-84 189-84 73 0 132 25 175 73 43 48 64 112 64 192l0 56-405 0c2 69 19 122 52 158 33 35 80 53 140 53 63 0 126-13 188-40l0 80c-32 14-61 23-90 29-28 6-62 9-101 9zm-25-535c-47 0-84 15-112 46-29 31-45 73-50 128l307 0c0-56-12-99-37-129-25-30-61-45-108-45z"></path>
  <path class="fil0" d="M7804 1113c0 363-104 641-310 834-207 194-505 290-896 290l-624 0 0-2205 692 0c360 0 640 95 839 285 199 190 299 455 299 796zm-486 13c0-474-209-711-628-711l-249 0 0 1436 201 0c451 0 676-242 676-725z"></path>
  <path class="fil0" d="M1438 1625c0 199-72 356-215 471-143 114-343 172-598 172-236 0-444-45-625-133l0-435c149 67 275 114 378 140 103 28 198 41 283 41 103 0 181-19 236-59 55-39 82-97 82-175 0-43-12-81-36-115-24-34-59-66-106-97-47-31-142-81-286-150-135-63-236-124-303-182-68-58-121-126-162-204-40-77-60-168-60-271 0-196 66-349 198-461 132-111 315-167 548-167 115 0 224 14 329 41 104 27 213 65 326 114l-150 364c-118-48-216-82-292-101-77-19-153-29-228-29-88 0-156 21-203 62-47 41-71 95-71 162 0 41 9 77 29 107 19 31 49 61 91 89 42 29 141 81 296 155 207 99 348 198 424 296 77 99 115 221 115 365zm1291 612l-468 0 0-1816-599 0 0-389 1666 0 0 389-599 0 0 1816zm2774-2205l0 1427c0 163-36 306-109 428-74 123-179 217-317 282-137 66-300 99-488 99-284 0-504-73-661-219-157-145-235-344-235-596l0-1421 466 0 0 1350c0 170 34 295 102 374 69 80 182 119 340 119 152 0 264-40 332-120 69-79 104-205 104-376l0-1347 466 0z"></path>
  <path class="fil0" d="M14345 1542l-828 0-269 697-51 0-207 0-51 0 850-2216 304 0 839 2216-51 0-213 0-50 0-273-697zm-79-229l-255-679c-25-64-50-138-75-223-19 70-43 144-71 223l-258 679 659 0zm-2763-1313c617 0 1117 500 1117 1117 0 231-70 446-190 625l1 0c0 0-3 2-6 7-7 9-13 18-20 27-37 59-93 184 6 308 135 170 355 446 355 446 0 0 76 65-15 153-91 88-113 110-113 110 0 0-75 68-166-30-92-98-381-446-381-446 0 0-103-155-251-134-18 6-37 11-55 16-61 27-217 36-282 36-617 0-1118-501-1118-1118 0-617 501-1117 1118-1117zm0 306c448 0 811 363 811 811 0 448-363 811-811 811-448 0-811-363-811-811 0-448 363-811 811-811zm-2622 634l460-908 504 0-732 1347 0 858-464 0 0-843-732-1362 507 0 457 908z"></path>
</svg>
