<svg xmlns="http://www.w3.org/2000/svg" width="49" height="51" viewBox="0 0 49 51"><g><g><g/><g><path fill="#4dd10f" d="M12.922 12.566c-3.168 0-5.742-2.627-5.742-5.859C7.18 3.484 9.726.75 12.922.75c3.187 0 5.742 2.734 5.742 5.957 0 3.232-2.574 5.86-5.742 5.86zm2.871-5.859c0-1.64-1.31-3.027-2.87-3.027S10.05 5.066 10.05 6.707c0 1.611 1.292 2.93 2.871 2.93 1.58 0 2.871-1.319 2.871-2.93z"/></g><g><path fill="#4dd10f" d="M0 28.68v-8.79c0-4.042 3.216-7.324 7.178-7.324h8.613c1.149 0 2.23.46 3.043 1.29l1.264 1.288v-10c0-2.421 1.933-4.394 4.306-4.394h20.29C47.066.75 49 2.723 49 5.145V19.88c0 2.422-1.933 4.394-4.307 4.394H28.29l-4.833 2.471a4.237 4.237 0 0 1-3.36.215v19.395c0 2.421-1.933 4.394-4.306 4.394a4.27 4.27 0 0 1-2.871-1.123 4.223 4.223 0 0 1-2.871 1.123c-2.374 0-4.307-1.973-4.307-4.394V32.82c-.45.166-.928.254-1.435.254C1.933 33.074 0 31.102 0 28.68zm24.404-25c-.794 0-1.435.654-1.435 1.465v12.03l2.383-1.21a4.238 4.238 0 0 1 4.919.762l7.848-4.004a1.42 1.42 0 0 1 1.923.654 1.477 1.477 0 0 1-.641 1.963l-7.848 4.004c.077.644.02 1.299-.191 1.933-.01.03-.02.05-.029.078h13.36c.795 0 1.436-.654 1.436-1.464V5.145c0-.811-.641-1.465-1.436-1.465zm-21.533 25c0 .81.641 1.465 1.436 1.465.794 0 1.435-.655 1.435-1.465v-8.79c0-.81.641-1.464 1.436-1.464.794 0 1.435.654 1.435 1.465v26.465c0 .81.641 1.464 1.436 1.464.794 0 1.435-.654 1.435-1.465V31.61c0-.81.642-1.465 1.436-1.465.794 0 1.436.655 1.436 1.465v14.746c0 .811.64 1.465 1.435 1.465.794 0 1.436-.654 1.436-1.465V24.031c0-1.328 1.56-1.943 2.45-1.035l.842.86c.45.458 1.12.546 1.655.273l5.743-2.93c.708-.361.995-1.24.64-1.963a1.42 1.42 0 0 0-1.923-.654l-3.895 1.982a1.405 1.405 0 0 1-1.656-.273l-4.278-4.365a1.42 1.42 0 0 0-1.014-.43H7.178c-2.374 0-4.307 1.973-4.307 4.395v8.789z"/></g></g></g></svg>