<svg xmlns="http://www.w3.org/2000/svg" width="11" height="14" viewBox="0 0 11 14"><g><g><g/><g><path fill="#423e2e" d="M5.506.65c3.188.022 5.73 2.65 5.477 5.709-.131 1.554-.818 2.86-2.117 3.795-1.099.79-1.992 1.731-2.644 2.893-.057.1-.115.194-.178.282-.292.432-.795.426-1.098-.01-.384-.56-.733-1.152-1.185-1.655-.47-.525-1.013-1.001-1.568-1.444C.407 8.804-.354 6.99.155 4.81.67 2.603 2.175 1.264 4.46.76c.338-.077.698-.077 1.047-.11zm.006 7.678c1.345 0 2.444-1.067 2.432-2.356-.011-1.3-1.104-2.357-2.438-2.357-1.339 0-2.438 1.057-2.45 2.351-.01 1.306 1.094 2.362 2.456 2.362z"/></g></g></g></svg>