<svg xmlns="http://www.w3.org/2000/svg" width="32" height="32" viewBox="0 0 32 32"><g><g><g/><g><path d="M31.446 13.175h-4.299c.642 1.622.497 2.64-.472 3.342-.811.593-1.986.581-2.76-.036-.982-.776-1.115-1.768-.437-3.294h-4.214V8.9c1.55.654 2.507.533 3.27-.436.617-.775.63-1.962.036-2.76-.726-.97-1.72-1.115-3.33-.473V.92H29.691c1.174 0 1.755.581 1.755 1.732v10.523z"/></g><g><path d="M12.684 24.015v-4.263h4.238c-.641 1.66-.508 2.567.473 3.306.799.605 1.95.593 2.76-.024.933-.715 1.078-1.744.436-3.294h4.323v10.366c0 1.271-.58 1.828-1.852 1.828H12.708v-4.371c-.738.448-1.453.702-2.192.411-.448-.181-.896-.484-1.198-.847-.654-.8-.57-2.01.109-2.785.775-.909 1.78-1.03 3.257-.327z"/></g><g><path d="M12.668 7.52v4.323c1.345-.739 2.543-.715 3.452.605.544.8.435 1.913-.182 2.652-.775.908-1.66 1.017-3.258.375v2.398h-1.998c-.157-1.223-.702-2.24-1.72-2.979-.762-.557-1.622-.787-2.554-.75-1.986.06-3.342 1.331-3.96 3.753H.498c-.024-.181-.048-.339-.048-.484V9.179c0-1.042.605-1.684 1.635-1.684 3.415-.012 6.817 0 10.232 0 .097 0 .194.012.351.025z"/></g><g><path d="M8.418 19.698h2.398v1.998c-1.308.182-2.398.775-3.137 1.95-.508.8-.666 1.671-.593 2.603.157 1.865 1.526 3.222 3.73 3.657v1.999c-.182.012-.352.036-.533.036H2.182c-1.15 0-1.732-.593-1.732-1.756v-9.857-.605h4.31c-.677-1.575-.532-2.592.413-3.33.799-.618 1.973-.63 2.76-.037 1.006.75 1.163 1.744.485 3.342z"/></g></g></g></svg>