<svg xmlns="http://www.w3.org/2000/svg" width="28" height="29" viewBox="0 0 28 29"><g><g><g/><g><path fill="#9f54eb" d="M13.66 28.062H1.093c-.866 0-1.101-.246-1.101-1.112 0-5.188 0-10.376-.011-15.553 0-.503.16-.834.567-1.112.77-.535 1.508-1.134 2.289-1.669.32-.224.417-.47.417-.845a62.584 62.584 0 0 1 0-2.834c.01-.792.278-1.038 1.07-1.049 1.465 0 2.92.011 4.385-.01.257 0 .557-.107.77-.257 1.177-.856 2.343-1.744 3.509-2.62.578-.44.802-.44 1.38-.011 1.155.866 2.3 1.743 3.465 2.588.246.182.61.3.92.3 1.444.032 2.888.01 4.332.01.76 0 1.027.268 1.038 1.027.01.995-.01 2 .021 2.995.011.203.15.47.31.6.781.62 1.584 1.208 2.396 1.785.364.257.535.567.535 1.027-.01 5.242-.01 10.483-.01 15.714 0 .748-.278 1.016-1.038 1.016-4.225.01-8.45.01-12.675.01zm12.077-12.429c-.235.118-.406.193-.577.278-3.594 1.786-7.2 3.573-10.783 5.38-.47.236-.866.257-1.358.022-3.637-1.83-7.284-3.637-10.932-5.445l-.449-.224v10.771h24.1V15.633zM4.9 5.514c-.01.129-.032.214-.032.3 0 3.08 0 6.16-.01 9.252 0 .332.16.46.417.588 2.674 1.327 5.359 2.653 8.022 3.99.289.15.492.14.78 0a683.621 683.621 0 0 1 7.927-3.947c.353-.17.492-.363.492-.76-.01-2.92-.01-5.84-.01-8.77 0-.204-.022-.417-.033-.642-5.861-.01-11.68-.01-17.553-.01zm19.243 9.028c1.487-.406 1.626-.588 1.626-2.032 0-.236.01-.46 0-.696-.01-.117-.01-.288-.075-.342-.481-.385-.973-.738-1.54-1.166-.01 1.508-.01 2.867-.01 4.236zm-20.954.064v-4.182c-1.508.791-1.605.941-1.605 2.514 0 .213-.02.427.011.641.022.118.096.278.193.332.449.235.909.45 1.4.695zm8.685-10.76h3.594c-.652-.482-1.208-.91-1.797-1.348-.577.438-1.144.855-1.797 1.348z"/></g><g><path fill="#9f54eb" d="M13.686 10.304h-4.59c-.662 0-1.026-.288-1.026-.812.01-.503.374-.792 1.048-.792h9.178c.63 0 .984.289.995.78.01.514-.364.824-1.017.824h-4.588z"/></g><g><path fill="#9f54eb" d="M11.236 13.514c-.748 0-1.497.011-2.246 0-.577-.01-.93-.331-.92-.812 0-.482.364-.792.942-.792h4.546c.566 0 .93.332.92.813-.011.481-.364.791-.942.791h-2.3z"/></g></g></g></svg>