<svg xmlns="http://www.w3.org/2000/svg" width="13" height="14" viewBox="0 0 13 14"><g><g><g/><g><path fill="#423e2e" d="M13.001 3.505v2.132c0 .427-.152.792-.451 1.092-2.01 2.01-4.016 4.02-6.031 6.025-.528.528-1.152.528-1.675.005-1.487-1.482-2.97-2.964-4.452-4.447-.523-.522-.523-1.152 0-1.675 2.015-2.02 4.03-4.035 6.046-6.05A1.46 1.46 0 0 1 7.508.15h4.29c.757 0 1.198.442 1.198 1.198.005.716.005 1.437.005 2.157zM9.742 2.323a1.067 1.067 0 0 0-1.066 1.086 1.067 1.067 0 0 0 1.087 1.066 1.077 1.077 0 0 0-.02-2.152z"/></g></g></g></svg>