<svg version="1.1" xmlns="http://www.w3.org/2000/svg" xmlns:xlink="http://www.w3.org/1999/xlink" x="0px" y="0px" width="40px" height="40px" viewBox="0 0 40 40" style="enable-background:new 0 0 40 40;" xml:space="preserve">
<style type="text/css">
  .st0{fill:url(#SVGID_1_);}
  .st1{fill:#FFFFFF;}
</style>
<defs>
</defs>
<g>

    <lineargradient id="SVGID_1_" gradientUnits="userSpaceOnUse" x1="57.4527" y1="-114.0555" x2="97.1319" y2="-114.3499" gradientTransform="matrix(1 0 0 -1 -57.6 -94.2049)">
    <stop offset="0" style="stop-color:#5F318D"></stop>
    <stop offset="1" style="stop-color:#5F318D"></stop>
  </lineargradient>
  <circle class="st0" cx="20" cy="20" r="20"></circle>
</g>
<path class="st1" d="M20,11c-5,0-9,4-9,9s4,9,9,9s9-4,9-9S25,11,20,11z M20,13.7c1.5,0,2.7,1.2,2.7,2.7c0,1.5-1.2,2.7-2.7,2.7
  s-2.7-1.2-2.7-2.7C17.3,14.9,18.5,13.7,20,13.7z M20,26.5c-2.3,0-4.2-1.2-5.4-2.9c0-1.8,3.6-2.8,5.4-2.8s5.4,1,5.4,2.8
  C24.2,25.3,22.3,26.5,20,26.5z"></path>
</svg>