<svg xmlns="http://www.w3.org/2000/svg" width="50" height="53" viewBox="0 0 50 53"><g><g><g/><g><g><g><path fill="#4dd10f" d="M24.096 52.747c-1.186 0-2.156-1.008-2.156-2.242v-2.48c0-.903.523-1.712 1.314-2.057v-.981l-2.895-2.866a15.104 15.104 0 0 1-2.781-3.78l-2.857-5.466a2.307 2.307 0 0 1 .038-2.228c.395-.69 1.084-1.101 1.862-1.101 1.735 0 3.38.77 4.528 2.109l.817.955V21.361h-6.812c-.676 0-1.224-.57-1.224-1.273s.548-1.274 1.224-1.274h6.812c.089-1.671 1.416-2.998 3.048-2.998 1.633 0 2.96 1.327 3.049 2.998h19.273a.206.206 0 0 0 .204-.212V3.519c0-.12-.09-.212-.204-.212h-9.541c-.676 0-1.225-.57-1.225-1.273S37.12.76 37.795.76h9.54c1.467-.013 2.666 1.234 2.666 2.76v15.042c0 1.526-1.199 2.773-2.665 2.773H28.063v2.998c.191-.04.395-.067.6-.067a3 3 0 0 1 2.588 1.5 2.89 2.89 0 0 1 1.06-.2 3 3 0 0 1 2.588 1.5 2.89 2.89 0 0 1 1.06-.2c1.683 0 3.047 1.42 3.047 3.17V34.6c0 5.983-1.99 9.286-2.69 10.254v1.101c.765.358 1.262 1.154 1.262 2.043v2.48c0 1.234-.97 2.242-2.156 2.242H24.096zm11.033-4.417h-2.487c-.676 0-1.225-.57-1.225-1.274 0-.703.549-1.273 1.225-1.273h1.224V44.43c0-.332.115-.637.332-.876.013-.026 2.347-2.825 2.347-8.928v-4.563a.611.611 0 0 0-.6-.623c-.331 0-.6.278-.6.623 0 .703-.548 1.274-1.224 1.274-.676 0-1.224-.57-1.224-1.274v-1.3a.611.611 0 0 0-.6-.623c-.331 0-.6.278-.6.623 0 .703-.548 1.274-1.224 1.274-.676 0-1.224-.57-1.224-1.274v-1.3a.611.611 0 0 0-.6-.623c-.331 0-.6.278-.6.623 0 .703-.548 1.274-1.224 1.274-.676 0-1.224-.57-1.224-1.274v-8.49a.611.611 0 0 0-.6-.623c-.331 0-.6.278-.6.623v16.953c.014.319-.101.637-.33.876a1.299 1.299 0 0 1-.932.411c-.357 0-.689-.159-.918-.438L19.3 33.366a3.654 3.654 0 0 0-2.181-1.22l2.602 4.988a12.608 12.608 0 0 0 2.321 3.143l3.278 3.237c.243.239.383.584.383.929v1.353h4.056c.676 0 1.225.57 1.225 1.273s-.549 1.274-1.225 1.274h-5.357V50.2h10.727z"/></g></g><g><g><path fill="#4dd10f" d="M2.666 21.351C1.199 21.351 0 20.104 0 18.565V3.522C0 1.997 1.199.75 2.666.75H34.91c.676 0 1.224.57 1.224 1.273 0 .704-.548 1.274-1.224 1.274H2.666a.206.206 0 0 0-.204.212v15.043c0 .12.089.212.204.212h9.604c.676 0 1.225.57 1.225 1.274 0 .703-.549 1.273-1.225 1.273H2.666z"/></g></g><g><g><path fill="#4dd10f" d="M22.742 15.934c-.433 0-.854-.146-1.199-.41-.637-.478-.943-1.274-.816-2.084l.255-1.512-1.059-1.074a2.187 2.187 0 0 1-.522-2.19 2.053 2.053 0 0 1 1.658-1.445l1.467-.226.65-1.38c.344-.729 1.046-1.193 1.837-1.193.79 0 1.492.451 1.837 1.194l.65 1.38 1.467.225c.778.12 1.416.677 1.658 1.446a2.187 2.187 0 0 1-.523 2.189l-1.059 1.074.255 1.512c.128.81-.178 1.606-.816 2.083a1.994 1.994 0 0 1-1.199.411 1.88 1.88 0 0 1-.956-.252l-1.314-.716-1.301.716a1.996 1.996 0 0 1-.97.252zm.102-5.677c.485.49.702 1.194.587 1.883l-.14.89.765-.412a2.01 2.01 0 0 1 .957-.239c.331 0 .663.08.956.239l.766.411-.14-.889a2.173 2.173 0 0 1 .586-1.883l.612-.624-.854-.132a2.083 2.083 0 0 1-1.544-1.168l-.382-.809-.383.81A2.083 2.083 0 0 1 23.087 9.5l-.855.132z"/></g></g><g><g><path fill="#4dd10f" d="M8.402 15.934c-.433 0-.854-.146-1.199-.41-.637-.478-.943-1.274-.816-2.084l.255-1.512-1.059-1.074a2.187 2.187 0 0 1-.522-2.19A2.053 2.053 0 0 1 6.719 7.22l1.467-.226.65-1.38c.344-.729 1.046-1.193 1.837-1.193.79 0 1.492.451 1.837 1.194l.65 1.38 1.467.225c.778.12 1.416.677 1.658 1.446a2.187 2.187 0 0 1-.523 2.189l-1.059 1.074.255 1.512c.128.81-.178 1.606-.816 2.083a1.994 1.994 0 0 1-1.199.411 1.88 1.88 0 0 1-.956-.252l-1.314-.716-1.301.716a1.961 1.961 0 0 1-.97.252zm.102-5.677c.485.49.702 1.194.587 1.883l-.14.89.765-.412a2.01 2.01 0 0 1 .957-.239c.331 0 .663.08.956.239l.766.411-.14-.889a2.173 2.173 0 0 1 .586-1.883l.612-.624-.854-.132a2.052 2.052 0 0 1-1.544-1.168l-.382-.809-.383.81A2.083 2.083 0 0 1 8.747 9.5l-.855.132z"/></g></g><g><g><path fill="#4dd10f" d="M37.062 15.934c-.433 0-.854-.146-1.199-.41-.637-.478-.943-1.274-.816-2.084l.255-1.512-1.059-1.074a2.187 2.187 0 0 1-.522-2.19 2.053 2.053 0 0 1 1.658-1.445l1.467-.226.65-1.38c.344-.729 1.046-1.193 1.837-1.193.79 0 1.492.451 1.837 1.194l.65 1.38 1.467.225c.778.12 1.416.677 1.658 1.446a2.187 2.187 0 0 1-.523 2.189l-1.059 1.074.256 1.512c.127.81-.18 1.606-.817 2.083a1.994 1.994 0 0 1-1.199.411 1.88 1.88 0 0 1-.956-.252l-1.314-.716-1.301.716a1.961 1.961 0 0 1-.97.252zm.102-5.677c.485.49.702 1.194.587 1.883l-.14.89.765-.412a2.01 2.01 0 0 1 .957-.239c.331 0 .663.08.956.239l.766.411-.14-.889a2.173 2.173 0 0 1 .586-1.883l.612-.624-.854-.132a2.083 2.083 0 0 1-1.544-1.168l-.382-.809-.383.81A2.083 2.083 0 0 1 37.407 9.5l-.855.132z"/></g></g></g></g></g></svg>