<svg xmlns="http://www.w3.org/2000/svg" width="18" height="19" viewBox="0 0 18 19"><g><g><g/><g><path fill="#423e2e" d="M8.936 18.709a8.918 8.918 0 0 1-4.672-1.322l-3.358.917a.747.747 0 0 1-.875-1.04 6.731 6.731 0 0 0 .344-4.859 9.241 9.241 0 0 1-.28-1.156C-.758 6.362 2.53 1.693 7.42.842c.014-.003.031-.003.045-.007a8.968 8.968 0 0 1 6.476 1.382 8.94 8.94 0 0 1 3.84 5.716 8.93 8.93 0 0 1-1.33 6.758 8.948 8.948 0 0 1-5.716 3.838 9.24 9.24 0 0 1-1.8.18zm-4.55-2.883a.73.73 0 0 1 .416.127c1.67 1.107 3.67 1.5 5.631 1.107a7.448 7.448 0 0 0 4.764-3.2 7.462 7.462 0 0 0 1.108-5.631 7.448 7.448 0 0 0-3.2-4.764 7.457 7.457 0 0 0-5.428-1.142c-.014.003-.028.003-.042.007-4.05.717-6.771 4.598-6.068 8.659.056.326.137.65.236.966a8.24 8.24 0 0 1 .098 4.521l2.289-.625a.977.977 0 0 1 .197-.025z"/></g><g><path fill="#423e2e" d="M11.96 8.948H5.959a.747.747 0 0 1-.749-.75c0-.414.334-.748.749-.748h5.997c.415 0 .75.334.75.749a.744.744 0 0 1-.746.749z"/></g><g><path fill="#423e2e" d="M11.96 11.958H5.959a.747.747 0 0 1-.749-.75c0-.414.334-.748.749-.748h5.997c.415 0 .75.334.75.749a.746.746 0 0 1-.746.749z"/></g></g></g></svg>