<svg xmlns="http://www.w3.org/2000/svg" width="32" height="33" viewBox="0 0 32 33"><g><g><g/><g><g><g><path d="M8.145 8.79l-2.775.217a2.468 2.468 0 0 0-1.884 1.108l-3.2 4.833a1.71 1.71 0 0 0 1.167 2.642l2.542.392c.591-3.15 2.016-6.292 4.15-9.192z"/></g></g><g><path d="M14.17 28.152l.392 2.541a1.724 1.724 0 0 0 1.691 1.459c.334 0 .659-.1.942-.284l4.833-3.2a2.481 2.481 0 0 0 1.109-1.883l.216-2.775c-2.891 2.125-6.033 3.55-9.183 4.142z"/></g><g><g><path d="M13.22 26.393c.092 0 .175-.008.267-.025a17.954 17.954 0 0 0 3.808-1.083L6.854 14.86a18.841 18.841 0 0 0-1.084 3.808c-.083.517.092 1.05.459 1.425l5.825 5.825c.316.3.733.475 1.166.475z"/></g><g><path d="M19.088 24.467c-.025-.025-.05-.059-.075-.084l-11.25-11.25c-.025-.025-.05-.05-.083-.075C10.222 8.142 14.522 4.4 17.813 2.7 21.938.567 26.272.15 29.005.15c.533 0 1 .017 1.4.033.842.05 1.508.717 1.558 1.559.134 2.441.034 7.658-2.516 12.6-1.7 3.283-5.442 7.583-10.359 10.125zm-1.866-14.234c0 1.259.491 2.434 1.375 3.317a4.702 4.702 0 0 0 3.316 1.367c1.2 0 2.4-.45 3.317-1.367a4.672 4.672 0 0 0 1.375-3.317c0-1.25-.492-2.433-1.375-3.316a4.693 4.693 0 0 0-6.625 0 4.666 4.666 0 0 0-1.383 3.316z"/></g><g><path d="M19.933 12.208c1.1 1.1 2.884 1.1 3.975 0a2.785 2.785 0 0 0 .825-1.991c0-.75-.291-1.459-.825-1.992a2.815 2.815 0 0 0-3.983 0 2.785 2.785 0 0 0-.825 1.992c.008.758.3 1.458.833 1.991z"/></g><g><path d="M.962 26.513a.94.94 0 0 0 .666-.275l3.059-3.058a.936.936 0 0 0 0-1.325.936.936 0 0 0-1.325 0L.295 24.913a.936.936 0 0 0 0 1.325.906.906 0 0 0 .667.275z"/></g><g><path d="M7.483 24.665a.936.936 0 0 0-1.325 0L.275 30.548a.936.936 0 0 0 .667 1.6.94.94 0 0 0 .666-.275l5.884-5.883a.943.943 0 0 0-.009-1.325z"/></g></g><g><path d="M8.963 27.465l-3.058 3.058a.936.936 0 0 0 .667 1.6.94.94 0 0 0 .666-.275l3.059-3.058a.936.936 0 0 0 0-1.325.946.946 0 0 0-1.334 0z"/></g></g></g></g></svg>