<svg xmlns="http://www.w3.org/2000/svg" width="22" height="22" viewBox="0 0 22 22"><g><g transform="rotate(180 11.21 11.11)"><g/><g><path d="M5.457 15.133c-3.118-4.368-1.711-9.69 1.78-12.293 3.524-2.626 8.5-2.228 11.548.961 3.039 3.173 3.242 8.167.492 11.56-2.781 3.43-7.938 4.454-12.008 1.554l-.297.274c-1.195 1.18-2.383 2.36-3.594 3.533-.734.71-1.843.422-2.117-.532-.14-.5.016-.914.375-1.274 1.164-1.156 2.32-2.321 3.477-3.478.11-.101.226-.195.344-.305zm13.257-5.275a6.25 6.25 0 0 0-6.257-6.245c-3.422 0-6.235 2.806-6.235 6.237-.008 3.44 2.805 6.253 6.242 6.26a6.26 6.26 0 0 0 6.25-6.252z"/></g></g></g></svg>