<svg xmlns="http://www.w3.org/2000/svg" width="239" height="15" viewBox="0 0 239 15"><g><g><g><path fill="#4dd10f" d="M2.647 11.84l.638-.054-.638.054z"/></g><g><path fill="#4dd10f" d="M193.506 6.045c.187.044.37.029.465.08"/></g><g><path fill="#4dd10f" d="M158.771.834l.005.06"/></g><g><path fill="#4dd10f" d="M9.657 11.244l-.274.023"/></g><g><path fill="#4dd10f" d="M202.477 5.882s.005.06.097.052"/></g><g><path fill="#4dd10f" d="M31.184 7.79l.273-.023"/></g><g><path fill="#4dd10f" d="M151.298 6.755c-.096-.052-.187-.044-.192-.104"/></g><g><path fill="#4dd10f" d="M151.232 5.98c-.101.203.082.577-.126.67-.314.143-.677-.156-1.021-.152-1.28.014-2.555.252-3.834.206-.123-.005.002-.346-.121-.35-.49-.015-.952.27-1.441.303-.583.038-1.202.11-1.75-.092-.214-.078-.02-.576-.238-.64-.737-.216-1.541-.215-2.301-.104-.438.063 1.744.192 1.305.249-.882.114-1.784-.183-2.666-.074-.381.048 1.506.233 1.123.265-.918.078-1.84-.128-2.761-.125-.548.002-1.559-.403-1.638.14-.295 2.002 2.17.244 2.31.223.104-.016.015.271.117.29.542.101 1.104.087 1.654.04.109-.01-.398-.154-.289-.156.952-.014 3.762-.163 2.853.118-1.292.4-5.839.562-7.51.099-.178-.05.416-.511.232-.5-.247.014-3.08 1.36-3.661.07-.126-.28.815.1.9-.196.076-.26-.487-.307-.758-.296-.674.028-2.352-.156-1.983.41.488.745 1.91.013 2.615.557.434.336-1.09.277-1.634.2-.142-.02.198-.405.056-.426-1.83-.265-3.718-.719-5.533-.37-.944.182 1.955.35 2.737.909.48.343-1.17-.209-1.76-.21-1.22-.005-2.433.183-3.651.19-.217.001.843-.164.626-.174-.67-.03-1.34.054-2.008.111-.064.006.252.05.188.044-.187-.014-.37-.071-.557-.073-.036 0-.05.067-.086.068-1.16.04-2.32.083-3.479.056-13.758-.328 8.13.277 2.529-.456-1.428-.186-2.882-.03-4.32-.112-.183-.011.725-.094.541-.107-.7-.047-1.425-.167-2.108 0-.166.04.06.406.223.461.56.19 1.289-.146 1.76.21.279.212-.632.322-.976.384-.72.13-1.454.18-2.185.186-.217.002.818-.07.627-.173-.268-.145-.674.204-.915.017-3.365-2.595 15.81 5.838 2.528-.455-.899-.426-1.973-.26-2.963-.348-.192-.018.753.116.561.132-.76.065-1.556-.193-2.291.015-.28.08.545.229.769.415.16.133-.364-.245-.572-.252-.164-.005-.276.211-.44.218-.314.013-.616-.173-.93-.161-.136.005-.213.206-.349.21-.587.016-1.2.043-1.755-.151-.15-.053.119-.472-.04-.477-1.188-.038-2.359.312-3.546.362-.227.01-.43-.19-.658-.185-.488.014-1.835-.051-1.445.244.6.454 1.523.09 2.23.35.14.052-.094.4-.243.381-.336-.044-.532-.505-.87-.526-.408-.026-.751.364-1.158.399-.585.05-1.175-.243-1.754-.151-.142.022.253.343.126.41-.324.168-.733.16-1.092.092-.16-.03.596-.173.439-.217-.565-.159-1.168-.177-1.754-.151-.853.037-1.688.402-2.539.336-.612-.048 2.41-.324 1.8-.394-1.792-.205-3.614-.172-5.411-.02-.2.018-.523.481-.324.509.996.137 4.02-.14 3.014-.137-1.494.005-2.994-.02-4.48.141-1.129.122-2.207.557-3.333.704-.261.035.952-.275.703-.36-.49-.166-1.04.153-1.553.072-.103-.016.17-.295.067-.306-.25-.025-.479.153-.714.241-.028.011.121-.01.091-.007-.878.095-1.757.18-2.634.284-.272.032 1.024.112.819-.07-.341-.301-.862-.328-1.315-.368-.365-.033-1.356-.096-1.087.152.34.314 1.184-.295 1.385.123.185.384-.848.097-1.274.108-.094.002.36-.066.268-.083-.456-.084-.95.038-1.386-.122-.115-.043.184-.376.06-.366-.618.053-1.171.46-1.79.513-.737.063-1.487-.035-2.215-.172-.115-.021-.09-.288-.207-.282-.493.024-1.005.122-1.436.362-2.33 1.297 12.08-.488 2.139.359-1.154.098-2.32.026-3.469.175-.254.033 1 .132.748.176-.691.12-1.414.186-2.104.06-.16-.03.031-.461-.13-.47-.409-.022-.75.39-1.16.399-.54.01-1.137-.044-1.587-.345-.209-.14.94-.134.713-.241-.476-.226-2.036.085-1.573-.167.538-.291 1.287.295 1.836.024.423-.209-.925-.281-1.396-.241-.798.068-2.059-.192-2.337.559-.235.636 2.355.765 1.74 1.053-1.379.646-3.042.382-4.56.268-.423-.032-.656-.593-1.068-.69-.386-.09-.784.127-1.179.16-.183.016.726-.1.542-.106-1.436-.038-2.88.158-4.309.007-.216-.023-.203-.44-.41-.506-.35-.11-.732.05-1.097.034-.064-.003.241-.072.177-.076-.642-.033-1.29-.095-1.927-.016-.145.018.528.18.385.208-.689.13-1.44-.116-2.1.118-.385.137.801.176 1.21.198.05.003.03-.125.08-.127.43-.018 1.628-.195 1.29.07-.613.48-1.462.589-2.235.67-.229.025-.354-.398-.582-.37-1.856.231-3.636.935-5.496 1.128-1.313.137-2.643-.014-3.956-.143-.333-.033-1.272-.27-.945-.34 1.37-.294 2.786-.37 4.187-.357.317.004.543.39.86.408.43.024 1.609-.037 1.259-.288-.617-.44-2.346.34-2.235-.41.115-.786 1.586-.166 2.35-.38.187-.053.603-.319.426-.397-.662-.291-1.417-.317-2.14-.358-.079-.005.1.236.021.238-.65.015-1.298-.282-1.943-.195-.218.03-.201.458-.414.516-.912.247-1.867.378-2.812.36-.218-.005.356-.256.516-.405.022-.02-.121.01-.091.008.486-.041 1.886.107 1.457-.124-.79-.426-4.786.135-5.022.247-.401.19 1.041.096 1.234.496.147.303-1.216-.303-1.011-.034.34.446 2.042.486 1.527.71-1.312.572-2.876.147-4.268.484-.227.055-.091.557-.314.627-1.077.34-2.219.563-3.348.525-.233-.008.528-.533.314-.627-.446-.196-1.931.232-1.456.124.892-.204 1.858-.09 2.716-.411.28-.105-1.028-.047-.85-.288.233-.32 1.566-.082 1.178-.16-.66-.133-1.399-.272-2.018-.01-.263.112.87.512.602.61-1.058.39-2.258.16-3.358.406-.25.056.936.002.749.177-.291.271-.914-.082-1.174.22-.219.254 1.337-.084 1.007-.026-.991.174-2.012.16-2.994.375-.39.085 1.59.05 1.193.019-.888-.07-1.785-.245-2.67-.134-.63.08-1.152.564-1.774.692-.115.024-.093-.263-.208-.283-.79-.133-1.62.04-2.397-.156-.22-.055.827-.207.617-.293-.455-.184-1.03-.27-1.472-.054-.235.114.198.646-.025.782-.416.255-.978.214-1.457.124-.18-.033-.131-.43-.313-.453-.848-.105-1.709.171-2.56.097-.228-.02-.353-.403-.581-.37-.542.077-1.167.234-1.502.668-.205.266 1.34-.073 1.007-.026-.694.097-1.411.022-2.094.178-.443.102-.786.504-1.233.586-.81.148-1.667.279-2.469.09-.507-.12 1.032-.165 1.532-.31.119-.035-.248-.001-.368-.03-.06-.013.234.014.181-.015-.302-.163-1.258-.247-.95-.4.419-.207 1.43.648 1.39.182-.047-.555-1.58-.297-1.446-.837.129-.52 1.059.173 1.583.285.06.013-.243.014-.182.016.581.017 1.172.135 1.744.031.18-.032-.657-.215-.48-.259 1.482-.368 2.995-.688 4.52-.745.693-.026.495 2.333 1.852.203.197-.31-.754.091-1.102-.027-.114-.038.084-.325-.03-.357-1-.283-2.037-.432-3.071-.52-.974-.082-1.962.12-2.933.01-.198-.023.724-.265.526-.285-.606-.061-1.296-.155-1.82.155-.46.271-.314 1.165-.8 1.389-.774.357-1.757-.148-2.553.157-.24.092.563.579.333.692-.37.184-.8-.263-1.213-.257-.46.007-.926.116-1.35.296-.198.083.856.007.642.005-.642-.005-1.286.019-1.927-.016-.213-.012.845-.006.638-.054-.576-.136-1.857.372-1.76-.211.098-.6 1.238.025 1.82-.155.245-.076-.95-.018-.749-.176.496-.389 1.358-.165 1.78-.632.266-.296-1.586.04-1.193-.019.693-.105 1.408 0 2.099-.119.494-.084.933-.386 1.426-.481.449-.087 1.677.282 1.37-.057-.38-.419-1.11-.326-1.674-.278-.205.018-.22.399-.42.456-.526.153-1.096.22-1.638.14-.156-.023.495-.307.339-.33-.817-.114-1.651.095-2.473.031-.217-.017.486-.009.627-.173.131-.154-.015-.41.04-.604.033-.115-.089.367.03.357.5-.042.928-.424 1.427-.481.82-.095 1.654.099 2.477.029.402-.034-1.585-.009-1.203-.138.606-.205 1.282-.186 1.916-.103.198.026-.723.258-.525.285 1.154.159 2.337.264 3.495.123.624-.076-1.529.213-1.861-.322-.29-.467 1.105.064 1.648-.02.084-.013-.015-.24.07-.246.314-.027.617.146.931.16.04.002-.05-.123-.01-.119.748.078 2.166-.399 2.23.351.062.73-1.593-.405-2.2.007-.453.308 1.046.427 1.594.405.83-.034 1.754-.08 2.427-.567.38-.274-1.002.078-1.391-.182-.182-.121.299-.375.515-.404.261-.035.498.176.754.236.02.005-.025-.06-.005-.06.556.034 1.108.184 1.664.159 1.46-.066 2.903-.411 4.365-.432.134-.001-.286.365-.152.374.972.065 1.964.012 2.918-.189.483-.101-1.97-.093-1.477-.114 1.435-.061 2.904-.306 4.31-.007.581.125-2.27.413-1.695.565.884.233 1.861.003 2.726-.292.191-.065-.34-.55-.142-.588.756-.149 1.628.53 2.306.164.538-.292-1.169-.435-1.78-.45-1.066-.025-2.115.313-3.181.331-.2.004.724-.264.526-.285-.911-.095-1.832.016-2.747.054-.02 0 .024.067.005.06-.168-.071-.519-.082-.48-.26.038-.179.722.007.547-.046-.574-.177-2.33-.548-1.77-.33 2.15.84 3.183.829 5.41.02.161-.059.303-.434.142-.493-.459-.169-1.806.357-1.467.005.403-.417 1.142-.316 1.72-.267 2.101.18 2.715 1.53 5.077.41.52-.248-1.495.147-1.684-.398-.17-.493 1.046.118 1.563.047 1.035-.142 2.665.287 3.06-.68.366-.903-1.935.27-2.908.307-.136.005.484-.204.348-.21-.426-.02-1.674.305-1.27.168.64-.216 1.316-.31 1.983-.409.05-.007-.13.125-.08.127.334.015.696.054 1.001-.085.109-.05-.148-.337-.03-.358 1.468-.264 2.972-.271 4.454-.44.064-.006-.25-.051-.187-.043 1.02.126 2.031.4 3.06.4.152 0-.357-.34-.218-.402a4.058 4.058 0 0 1 1.897-.341c.16.01-.114.438.04.476.746.186 1.603.424 2.302.105 6.466-2.95-4.777.111-.85-.288 2.855-.29 2.936-1.181 5.572-.234.462.166-.998-.186-1.47-.055-.281.078.553.253.844.228.946-.08 1.887-.266 2.796-.538.266-.08-.552-.053-.829-.05-.02 0 .025.062.005.06-.435-.044-1.733-.127-1.3-.19.758-.11 1.531.05 2.297.045.02 0-.025-.058-.006-.06 1.368-.096 2.738-.305 4.107-.229.27.015-.969.399-.698.42.492.038.973-.193 1.436-.363.116-.042-.492-.013-.37-.028.635-.079 1.276-.223 1.913-.163.29.027.485.483.768.415.26-.062.143-.62.4-.694.531-.154 1.105.13 1.659.099.135-.008.212-.206.348-.21 2.26-.078 4.53.155 6.782-.037.839-.071-3.017.34-2.503-.327.613-.797 1.993-.322 2.999-.316.541.004 1.046.34 1.588.345.344.003.637-.304.98-.323.98-.054 1.964.174 2.944.11.116-.008.04-.304.157-.314.525-.045 1.075-.008 1.572.166.117.041-.143.274-.06.366.082.09.485-.046.364-.031-1.633.204-3.28.311-4.9.597-.12.021.172.208.293.215.187.012.354-.208.536-.165.097.023-.072.278.025.298.942.193 1.92.456 2.868.296.5-.084-1.378-.035-1.421-.54-.039-.456.93.11 1.375.004.114-.028-.315-.33-.208-.283.289.127.469.482.78.534.6.101 1.218-.043 1.825-.095.153-.013-.614-.021-.46-.021.856 0 1.715.094 2.569.022.199-.017.722-.248.526-.285-.813-.156-1.683.125-2.483-.09-.447-.12-1.384-.517-1.083-.868.457-.532 1.383-.273 2.084-.298 1.285-.044 2.573.143 3.858.092.086-.003-.014-.24.072-.246 1.34-.094 2.691.071 4.03-.043.29-.024.503-.352.794-.368 2.835-.15 5.679-.032 8.516-.124.193-.006-.752-.116-.56-.132.609-.052 1.225.07 1.835.024 1.549-.118 3.079-.467 4.632-.515 1.02-.03 2.03.33 3.05.281.166-.008.07-.432.237-.44 4.236-.224 8.483-.13 12.723-.243.128-.003-.501-.085-.373-.088 2.84-.053 5.682-.15 8.52-.065.485.015 1.082.003 1.407.361.18.197-.863.515-.597.531.884.056 1.866.053 2.625-.403.311-.188-1.221-.518-.88-.646.665-.25 1.413.187 2.124.18a28.56 28.56 0 0 0 3.464-.235c.308-.04-.616-.077-.926-.102-.064-.004.252.049.188.045-.863-.057-3.443-.102-2.585-.2 1.518-.176 3.056-.085 4.582-.03.472.016.93.168 1.396.241.03.005.061-.013.091-.008.344.063.68.258 1.027.213.17-.022.168-.347.334-.389.14-.035.238.214.384.208 1.278-.054 2.54-.327 3.818-.385.737-.033 1.473.126 2.21.112.136-.003-.514-.136-.38-.148 2.771-.236 7.486-.69 10.54-.056.308.064-1.167.166-.89.316.517.279 1.17.2 1.755.15.157-.013.185-.293.339-.328.95-.222 1.922-.395 2.897-.427.957-.032 1.906.224 2.863.237.35.004-.758.01-1.027-.213-.213-.177.554.073.83.05.04-.004-.05-.124-.01-.12.963.1 1.915.296 2.877.416.02.002-.025-.06-.005-.06.217.002.728.266.647.065-.104-.26-1.044-.356-.763-.355.935.004 1.85.286 2.781.364.05.004.031-.127.081-.127.251-.004.493.114.744.116.05 0-.151-.117-.102-.111 1.024.119 3.11.75 4.33.232 3.316-1.408-19.525 1.02-2.403-.216 2.309-.167 4.61-.498 6.923-.53 1.879-.024 3.746.315 5.624.363.1.003-.301-.208-.202-.223 3.19-.47 7.647.015 10.453.011.192 0 .34-.246.531-.225 2.764.293 5.49.907 8.259 1.158.2.019-.604-.424-.405-.446 1.039-.11 2.086.167 3.13.154.228-.002-.88-.138-.657-.184 1.385-.286 2.432.151 3.722.644.086.033-.36-.004-.273.023.334.105.683.154 1.027.213.036.006-.132-.055-.096-.052 5.726.46 11.444 1.019 17.175 1.421.326.023-1.268-.286-.941-.28.901.016 1.789.222 2.685.312.037.004-.132-.055-.096-.052.958.085 1.911.206 2.868.296.064.006-.251-.05-.187-.044 1.574.158 3.139.423 4.718.5.822.04 1.645-.234 2.463-.15.388.04.734.286 1.052.511.101.071-.475-.093-.369-.029.387.235 1.526.205 1.24.555-.839 1.024-4.045.998-5.058.911-1.004-.086-1.97-.511-2.979-.527-.254-.004-.348.443-.601.472-.528.06-1.05-.163-1.578-.226-.646-.078-1.292-.203-1.942-.195-.122.001.414.2.293.215-.637.078-1.295.101-1.927-.016-.115-.022.26-.258.157-.314-.244-.131-.683.186-.83-.05-.12-.193.778-.13.618-.292-.295-.299-.8-.284-1.22-.317-.18-.014.649.189.481.26-.365.155-1.137-.352-1.188.04-.052.396.994.011 1.133.385.108.29-.586.277-.895.256-.64-.043-1.24-.338-1.872-.441-.232-.038.898.25.663.244-1.328-.032-2.644-.258-3.97-.323-.136-.007.515.146.38.148-.678.008-1.352-.163-2.029-.128-.52.027-1.011.328-1.532.31-.519-.017-.984-.372-1.502-.412-.367-.028-.727.305-1.082.212-.516-.133-.823-.849-1.356-.845-.424.003-.553.679-.935.86-.122.058-.165-.257-.299-.275-.272-.035-.547.063-.814.13-.035.009.132.049.096.052-.425.036-.886-.118-1.28.048-.191.082.78.246.572.252-1.258.036-2.514-.193-3.773-.16-.46.013-.89.277-1.35.296-.89.036-1.779-.136-2.67-.133-.336 0-.666.205-.996.145-.122-.023.002-.349-.122-.35-.792-.01-1.569.413-2.356.32-.3-.035-.307-.654-.607-.669-1.295-.064-3.496.898-.769.666.373-.031-.741-.191-1.112-.145-.181.022-.25.306-.43.337-.542.093-1.116.155-1.649.02-.138-.035-.087-.422.056-.425.317-.006.543.385.86.407.255.017.948-.212.707-.3-1.071-.395-2.223-.547-3.358-.675-.394-.045-.838-.044-1.178.16-.14.084.287.423.132.47a8.16 8.16 0 0 1-2.726.291c-.152-.008.298-.42.146-.433-.519-.046-1.012.278-1.532.31-2.252.144-4.51.262-6.766.217-.374-.008.698-.333 1.072-.332.15 0 .359.474.303.334-.132-.328-.211-.776-.536-.915-.313-.134-.647.244-.986.264-.433.026-.893.034-1.295-.13-.152-.061.596-.266.44-.217-.334.103-.627.371-.976.383-.477.017-.945-.442-1.401-.301-.258.08.574.28.597.55.018.217-.302.357-.516.404-.418.091-.885-.165-1.284-.01-.181.069.674.274.485.318-.683.16-1.405.122-2.104.06-.134-.013-.163-.278-.298-.276-1.4.026-2.788.303-4.187.357-.136.005.484-.21.349-.21-1.097.003-2.188.282-3.282.219-.618-.035-1.17-.448-1.786-.509-.396-.038-.775.225-1.173.22-.867-.009-1.726-.18-2.59-.26-.524-.048 2.067-.018 1.573.167-1.781.667-4.959.161-6.544-.404-.33-.118-.277-.785-.622-.848-.692-.126-1.428.09-2.078.357-18.066 7.416 40.16-14.044 1.122.265-.758.278-1.674.202-2.326.678-.306.224.743.258 1.118.205.118-.016.023-.464-.03-.357z"/></g><g><path fill="#4dd10f" d="M9.656 11.244l.183-.016-.269.083.086-.067z"/></g><g><path fill="#4dd10f" d="M120.798 7.13c-.09.007-.187-.045-.192-.105"/></g><g><path fill="#4dd10f" d="M99.502 7.92l-.005-.06c.092-.007.097.053.005.06z"/></g><g><path fill="#4dd10f" d="M8.569 13.558l.37.03a.787.787 0 0 1-.37-.03z"/></g></g></g></svg>