<svg xmlns="http://www.w3.org/2000/svg" width="13" height="11" viewBox="0 0 13 11"><g><g><g><path fill="#6f6f6f" d="M6.39 3.304l.026.415-.42-.05c-1.528-.196-2.862-.857-3.995-1.967l-.554-.55-.143.406c-.302.907-.11 1.864.52 2.508.336.356.26.407-.319.195-.201-.067-.377-.118-.394-.093-.059.06.143.83.302 1.136.218.423.663.839 1.15 1.084l.411.195-.487.009c-.47 0-.486.008-.436.186.168.55.831 1.136 1.57 1.39l.52.178-.453.271c-.672.39-1.46.61-2.25.627-.377.009-.688.042-.688.068 0 .085 1.024.56 1.62.746 1.788.55 3.911.313 5.506-.628 1.133-.669 2.267-2 2.795-3.287.286-.687.571-1.941.571-2.543 0-.39.025-.44.495-.906.277-.272.538-.568.588-.653.084-.16.075-.16-.353-.017-.713.254-.814.22-.461-.16.26-.272.57-.763.57-.908 0-.025-.125.017-.268.094a4.685 4.685 0 0 1-.739.288l-.453.144-.411-.28C9.983 1.05 9.664.88 9.496.83 9.068.711 8.413.728 8.027.863c-1.049.382-1.712 1.365-1.636 2.44z"/></g></g></g></svg>