<svg xmlns="http://www.w3.org/2000/svg" width="14" height="8" viewBox="0 0 14 8"><g><g><g><path fill="#6f6f6f" d="M7.378 7.488s.23-.025.35-.15c.107-.114.104-.33.104-.33s-.015-1.007.462-1.156c.47-.146 1.072.974 1.712 1.405.483.326.85.254.85.254l1.71-.023s.894-.054.47-.744c-.035-.057-.247-.51-1.27-1.444-1.073-.976-.93-.818.362-2.508.786-1.028 1.1-1.656 1.002-1.925-.093-.257-.672-.189-.672-.189L10.534.69s-.143-.019-.249.043c-.103.061-.17.203-.17.203s-.304.796-.71 1.473c-.858 1.428-1.2 1.504-1.34 1.415-.327-.207-.245-.83-.245-1.274 0-1.384.214-1.961-.417-2.11C7.194.39 7.04.356 6.505.351c-.687-.007-1.268.002-1.597.16-.22.105-.388.34-.285.353.127.017.415.076.568.28.197.264.19.855.19.855s.114 1.63-.265 1.832c-.259.14-.614-.144-1.379-1.44A11.952 11.952 0 0 1 3.05.994s-.056-.137-.159-.21c-.123-.09-.295-.117-.295-.117L.767.678S.492.686.392.803c-.09.104-.007.32-.007.32S1.817 4.41 3.438 6.068c1.487 1.52 3.175 1.42 3.175 1.42z"/></g></g></g></svg>